<svg xmlns="http://www.w3.org/2000/svg" xmlns:xlink="http://www.w3.org/1999/xlink" viewBox="0 0 414.92 104.74"><defs><style>.cls-1{fill:#2a4e7f;}.cls-2{fill:#848484;}.cls-3{fill:url(#radial-gradient);}.cls-4{fill:url(#radial-gradient-2);}.cls-5{fill:url(#radial-gradient-3);}.cls-6{fill:url(#radial-gradient-4);}.cls-7{fill:url(#radial-gradient-5);}.cls-8{fill:url(#radial-gradient-6);}.cls-9{fill:url(#radial-gradient-7);}.cls-10{fill:url(#radial-gradient-8);}.cls-11{fill:url(#radial-gradient-9);}.cls-12{fill:url(#radial-gradient-10);}.cls-13{fill:url(#radial-gradient-11);}.cls-14{fill:url(#radial-gradient-12);}.cls-15{fill:url(#radial-gradient-13);}.cls-16{fill:url(#radial-gradient-14);}.cls-17{fill:url(#radial-gradient-15);}.cls-18{fill:url(#radial-gradient-16);}.cls-19{fill:url(#radial-gradient-17);}.cls-20{fill:url(#radial-gradient-18);}.cls-21{fill:url(#radial-gradient-19);}.cls-22{fill:url(#radial-gradient-20);}.cls-23{fill:url(#radial-gradient-21);}.cls-24{fill:url(#radial-gradient-22);}.cls-25{fill:url(#radial-gradient-23);}.cls-26{fill:url(#radial-gradient-24);}.cls-27{fill:url(#radial-gradient-25);}.cls-28{fill:url(#radial-gradient-26);}.cls-29{fill:url(#radial-gradient-27);}.cls-30{fill:url(#radial-gradient-28);}.cls-31{fill:url(#radial-gradient-29);}.cls-32{fill:url(#radial-gradient-30);}.cls-33{fill:url(#radial-gradient-31);}.cls-34{fill:url(#radial-gradient-32);}.cls-35{fill:url(#radial-gradient-33);}.cls-36{fill:url(#radial-gradient-34);}.cls-37{fill:url(#radial-gradient-35);}.cls-38{fill:url(#radial-gradient-36);}.cls-39{fill:url(#radial-gradient-37);}.cls-40{fill:url(#radial-gradient-38);}</style><radialGradient id="radial-gradient" cx="63.34" cy="25.28" r="18.68" gradientUnits="userSpaceOnUse"><stop offset="0" stop-color="#d4e5d7" stop-opacity="0.55"/><stop offset="1" stop-color="#95b7a4"/></radialGradient><radialGradient id="radial-gradient-2" cx="52.58" cy="34.6" r="39.05" gradientUnits="userSpaceOnUse"><stop offset="0" stop-color="#93a9be" stop-opacity="0.55"/><stop offset="1" stop-color="#345079"/></radialGradient><radialGradient id="radial-gradient-3" cx="52.58" cy="34.7" r="39.05" xlink:href="#radial-gradient-2"/><radialGradient id="radial-gradient-4" cx="51.53" cy="34.79" r="41.26" xlink:href="#radial-gradient-2"/><radialGradient id="radial-gradient-5" cx="51.79" cy="34.89" r="40.8" xlink:href="#radial-gradient-2"/><radialGradient id="radial-gradient-6" cx="52.65" cy="33.41" r="38.89" xlink:href="#radial-gradient-2"/><radialGradient id="radial-gradient-7" cx="52.48" cy="33.51" r="39.26" xlink:href="#radial-gradient-2"/><radialGradient id="radial-gradient-8" cx="52.33" cy="33.6" r="39.59" xlink:href="#radial-gradient-2"/><radialGradient id="radial-gradient-9" cx="52.38" cy="33.7" r="39.48" xlink:href="#radial-gradient-2"/><radialGradient id="radial-gradient-10" cx="52.42" cy="33.79" r="39.41" xlink:href="#radial-gradient-2"/><radialGradient id="radial-gradient-11" cx="52.34" cy="33.89" r="39.57" xlink:href="#radial-gradient-2"/><radialGradient id="radial-gradient-12" cx="52.34" cy="33.98" r="39.53" xlink:href="#radial-gradient-2"/><radialGradient id="radial-gradient-13" cx="52.25" cy="34.08" r="39.64" xlink:href="#radial-gradient-2"/><radialGradient id="radial-gradient-14" cx="52.31" cy="34.17" r="39.51" xlink:href="#radial-gradient-2"/><radialGradient id="radial-gradient-15" cx="52.18" cy="34.27" r="39.68" xlink:href="#radial-gradient-2"/><radialGradient id="radial-gradient-16" cx="51.9" cy="34.36" r="39.75" xlink:href="#radial-gradient-2"/><radialGradient id="radial-gradient-17" cx="52.18" cy="34.46" r="39.46" xlink:href="#radial-gradient-2"/><radialGradient id="radial-gradient-18" cx="52.04" cy="34.55" r="39.58" xlink:href="#radial-gradient-2"/><radialGradient id="radial-gradient-19" cx="52.58" cy="34.65" r="39.05" xlink:href="#radial-gradient-2"/><radialGradient id="radial-gradient-20" cx="52.61" cy="34.74" r="39.02" xlink:href="#radial-gradient-2"/><radialGradient id="radial-gradient-21" cx="52.4" cy="33.27" r="39.2" xlink:href="#radial-gradient-2"/><radialGradient id="radial-gradient-22" cx="51.6" cy="33.36" r="39.87" xlink:href="#radial-gradient-2"/><radialGradient id="radial-gradient-23" cx="51.36" cy="33.46" r="40.05" xlink:href="#radial-gradient-2"/><radialGradient id="radial-gradient-24" cx="51.17" cy="33.55" r="40.17" xlink:href="#radial-gradient-2"/><radialGradient id="radial-gradient-25" cx="50.22" cy="33.65" r="40.83" xlink:href="#radial-gradient-2"/><radialGradient id="radial-gradient-26" cx="48.24" cy="33.74" r="42.18" xlink:href="#radial-gradient-2"/><radialGradient id="radial-gradient-27" cx="46.78" cy="33.84" r="43.05" xlink:href="#radial-gradient-2"/><radialGradient id="radial-gradient-28" cx="42.96" cy="33.94" r="45.41" xlink:href="#radial-gradient-2"/><radialGradient id="radial-gradient-29" cx="42.08" cy="34.03" r="45.73" xlink:href="#radial-gradient-2"/><radialGradient id="radial-gradient-30" cx="40.84" cy="34.13" r="46.3" xlink:href="#radial-gradient-2"/><radialGradient id="radial-gradient-31" cx="40.86" cy="34.22" r="46.04" xlink:href="#radial-gradient-2"/><radialGradient id="radial-gradient-32" cx="29.3" cy="34.32" r="52.46" xlink:href="#radial-gradient-2"/><radialGradient id="radial-gradient-33" cx="2250.13" cy="35.98" r="52.46" gradientTransform="translate(-1194.82) scale(0.56 1)" xlink:href="#radial-gradient-2"/><radialGradient id="radial-gradient-34" cx="52.58" cy="33.5" r="39.05" xlink:href="#radial-gradient-2"/><radialGradient id="radial-gradient-35" cx="53.09" cy="43.8" r="39.46" gradientUnits="userSpaceOnUse"><stop offset="0" stop-color="#ded7cb" stop-opacity="0.55"/><stop offset="1" stop-color="#bcad95"/></radialGradient><radialGradient id="radial-gradient-36" cx="53.3" cy="40.55" r="27.36" gradientUnits="userSpaceOnUse"><stop offset="0" stop-color="#d298a2" stop-opacity="0.55"/><stop offset="1" stop-color="#9e3e49"/></radialGradient><radialGradient id="radial-gradient-37" cx="52.99" cy="40.95" r="35.85" xlink:href="#radial-gradient"/><radialGradient id="radial-gradient-38" cx="51.18" cy="41.66" r="34.93" xlink:href="#radial-gradient-36"/></defs><title>Asset 1</title><g id="Layer_2" data-name="Layer 2"><g id="Layer_1-2" data-name="Layer 1"><path class="cls-1" d="M130.08,27.92h4.63V49h-4.63Z"/><path class="cls-1" d="M142.24,27.92h4.27l9.87,13v-13H161V49H157l-10.2-13.39V49h-4.57Z"/><path class="cls-1" d="M173.17,32.19h-6.41V27.92h17.45v4.27H177.8V49h-4.63Z"/><path class="cls-1" d="M190,27.92H205.9V32H194.62v4.27h9.93v4.12h-9.93v4.43h11.43V49H190Z"/><path class="cls-1" d="M212.43,27.92h9.63a8.42,8.42,0,0,1,6.14,2.13,6.64,6.64,0,0,1,1.8,4.82v.06a6.54,6.54,0,0,1-4.51,6.53L230.64,49h-5.42l-4.51-6.74h-3.65V49h-4.63Zm9.33,10.23c2.26,0,3.55-1.21,3.55-3v-.06c0-2-1.38-3-3.64-3h-4.61v6Z"/><path class="cls-1" d="M236.44,27.92h4.27l9.87,13v-13h4.58V49h-3.94L241,35.59V49h-4.57Z"/><path class="cls-1" d="M269.48,27.77h4.27l9,21.21h-4.85L276,44.26H267.1L265.17,49h-4.72Zm4.87,12.39-2.8-6.83-2.8,6.83Z"/><path class="cls-1" d="M290.69,32.19h-6.41V27.92h17.45v4.27h-6.41V49h-4.63Z"/><path class="cls-1" d="M307.75,27.92h4.63V49h-4.63Z"/><path class="cls-1" d="M319,38.51v-.06A10.89,10.89,0,0,1,330.2,27.56a10.79,10.79,0,0,1,11.16,10.83v.06a11.2,11.2,0,0,1-22.39.06Zm17.54,0v-.06a6.39,6.39,0,0,0-6.37-6.62,6.3,6.3,0,0,0-6.32,6.56v.06a6.4,6.4,0,0,0,6.38,6.62A6.29,6.29,0,0,0,336.51,38.51Z"/><path class="cls-1" d="M347.73,27.92H352l9.87,13v-13h4.57V49h-3.94l-10.2-13.39V49h-4.58Z"/><path class="cls-1" d="M381,27.77h4.28l9,21.21h-4.84l-1.93-4.72h-8.9L376.68,49H372Zm4.88,12.39-2.8-6.83-2.8,6.83Z"/><path class="cls-1" d="M399.79,27.92h4.63V44.77h10.5V49H399.79Z"/><path class="cls-2" d="M130.08,65.08H131V76.17h7V77h-7.87Z"/><path class="cls-2" d="M162.12,65H163l5.55,12h-1L166,73.65h-7L157.5,77h-.92Zm3.54,7.85L162.53,66l-3.14,6.88Z"/><path class="cls-2" d="M188,65.08h.84l8.21,10.35V65.08h.85V77h-.67l-8.38-10.57V77H188Z"/><path class="cls-2" d="M217.94,71.07v0a5.93,5.93,0,0,1,5.88-6.15,6.25,6.25,0,0,1,4.35,1.56l-.58.66a5.36,5.36,0,0,0-3.82-1.42A5.06,5.06,0,0,0,218.85,71v0c0,3.08,1.92,5.37,5.1,5.37A6.08,6.08,0,0,0,227.74,75V71.63h-4v-.82h4.82V75.4a7.14,7.14,0,0,1-4.67,1.78A5.79,5.79,0,0,1,217.94,71.07Z"/><path class="cls-2" d="M248.6,72v-7h.89V72c0,2.8,1.51,4.42,4,4.42s4-1.46,4-4.34v-7h.88v6.85c0,3.42-2,5.24-4.88,5.24S248.6,75.37,248.6,72Z"/><path class="cls-2" d="M282.81,65h.85l5.54,12h-1l-1.51-3.33h-7L278.18,77h-.91Zm3.53,7.85L283.22,66l-3.15,6.88Z"/><path class="cls-2" d="M307.51,71.07v0a5.94,5.94,0,0,1,5.88-6.15,6.25,6.25,0,0,1,4.35,1.56l-.58.66a5.36,5.36,0,0,0-3.82-1.42A5,5,0,0,0,308.43,71v0c0,3.08,1.92,5.37,5.1,5.37A6.13,6.13,0,0,0,317.32,75V71.63h-4v-.82h4.83V75.4a7.17,7.17,0,0,1-4.68,1.78A5.8,5.8,0,0,1,307.51,71.07Z"/><path class="cls-2" d="M338.36,65.08h8.47v.82h-7.58v4.67h6.81v.82h-6.81v4.78h7.66V77h-8.55Z"/><path class="cls-2" d="M366,75.25l.58-.67a5.76,5.76,0,0,0,4.26,1.77c1.79,0,3-1,3-2.36v0c0-1.26-.66-2-3.36-2.54-2.86-.58-4-1.55-4-3.35v0c0-1.77,1.62-3.13,3.83-3.13a5.94,5.94,0,0,1,4.08,1.45l-.56.69a5.12,5.12,0,0,0-3.55-1.34c-1.76,0-2.91,1-2.91,2.24v0c0,1.26.64,2,3.47,2.6s3.91,1.55,3.91,3.28v0c0,1.92-1.65,3.25-4,3.25A6.79,6.79,0,0,1,366,75.25Z"/><path class="cls-3" d="M64.33,9.56h2.85v.87H64.33Zm.9,2.52h6.23v-.87H65.23Zm4.29,1.69h5.19v-.88H69.52Zm7.89.79H65.07v.87H77.41Zm2.29,1.67H67.58v.87H79.7ZM69.44,18.77H81.79v-.88H69.44Zm.25,1.67H83.63v-.88H69.69ZM68.62,22.1h4.86v-.87H68.62Zm.7,1.67h3.54V22.9H69.32Zm16-2.54h-8v.87h8Zm1.49,1.67H81.24v.87h5.54Zm1.38,1.68H85.57v.88h2.59Zm1.2,1.65H86.6v.88h2.76Zm-2.72,2.54H90.5V27.9H86.64Z"/><rect class="cls-4" x="73.11" y="26.23" width="6.43" height="0.87"/><rect class="cls-5" x="71.87" y="27.9" width="10.02" height="0.87"/><rect class="cls-6" x="70.97" y="29.56" width="20.57" height="0.87"/><rect class="cls-7" x="70.1" y="31.23" width="22.4" height="0.87"/><rect class="cls-8" x="69.52" y="32.9" width="23.78" height="0.87"/><rect class="cls-9" x="69.94" y="34.57" width="24.09" height="0.87"/><rect class="cls-10" x="70.31" y="36.23" width="24.42" height="0.87"/><rect class="cls-11" x="70.13" y="37.9" width="25.17" height="0.87"/><rect class="cls-12" x="68.99" y="39.57" width="26.81" height="0.87"/><rect class="cls-13" x="69.56" y="41.24" width="26.68" height="0.87"/><rect class="cls-14" x="71.34" y="42.9" width="25.27" height="0.87"/><rect class="cls-15" x="72.82" y="44.57" width="24.1" height="0.87"/><rect class="cls-16" x="73.94" y="46.24" width="23.22" height="0.87"/><rect class="cls-17" x="75.17" y="47.91" width="22.16" height="0.87"/><rect class="cls-18" x="86.43" y="49.57" width="11.02" height="0.87"/><rect class="cls-19" x="85.15" y="51.24" width="12.36" height="0.87"/><rect class="cls-20" x="85.58" y="52.91" width="11.93" height="0.87"/><rect class="cls-21" x="86.6" y="54.58" width="10.85" height="0.87"/><rect class="cls-22" x="87.3" y="56.24" width="10.01" height="0.87"/><rect class="cls-23" x="87.22" y="57.91" width="9.91" height="0.87"/><rect class="cls-24" x="86.43" y="59.58" width="10.44" height="0.87"/><rect class="cls-25" x="85.85" y="61.25" width="10.69" height="0.87"/><rect class="cls-26" x="85.9" y="62.91" width="10.27" height="0.87"/><rect class="cls-27" x="86.18" y="64.58" width="9.53" height="0.87"/><rect class="cls-28" x="86.27" y="66.25" width="8.91" height="0.87"/><rect class="cls-29" x="86.27" y="67.92" width="8.28" height="0.87"/><rect class="cls-30" x="86.31" y="69.58" width="7.58" height="0.87"/><rect class="cls-31" x="85.94" y="71.25" width="7.21" height="0.87"/><rect class="cls-32" x="85.11" y="72.92" width="7.24" height="0.87"/><rect class="cls-33" x="84.2" y="74.59" width="7.18" height="0.87"/><rect class="cls-34" x="84.55" y="76.25" width="5.78" height="0.87"/><rect class="cls-35" x="85.94" y="77.92" width="3.21" height="0.87"/><path class="cls-36" d="M102.4,54.7a50.15,50.15,0,0,1-47.54,47.7v2.33a52.49,52.49,0,0,0,49.87-50Z"/><path class="cls-37" d="M35.25,45.45H31.37v-.88h3.88Zm6.28.79H31.17v.87H41.53Zm4,1.67H30.67v.87H45.56Zm1.24,1.66H30.14v.88H46.8Zm-.08,1.67H30v.88H46.72Zm-.54,1.67h-17v.87h17Zm7.55,1.67H28.65v.87H53.73Zm4.16,1.66H28.36v.88H57.89ZM28.82,58.79H59v-.88H28.82Zm1.28.79v.87H59.17v-.87Zm1.15,2.54H57.4v-.87H31.25Zm.25,1.67H56v-.88H31.5Zm0,1.67H54.8v-.88H31.47Zm23,.79H33v.87H54.47ZM35.09,68.79H54.63v-.87H35.09Zm2.39,1.67H54.63v-.88H37.48ZM38,72.13H54.59v-.88H38Zm13.32.79H37.68v.87H51.29ZM37.11,75.46H50.84v-.87H37.11Zm12.58.79H37.31v.88H49.69Zm-1.24,1.67H38v.88H48.45ZM46.3,79.59H38.59v.87H46.3Zm-.53,1.67H39.09v.87h6.68Zm-.58,1.66H39.5v.88h5.69ZM43.9,84.59H40v.87H43.9Zm-.57,1.67H40.08v.87h3.25Zm0,1.66H40.37v.88h2.92Zm.13,1.67H41v.88h2.39Zm.41,1.67H42v.87h1.81ZM45,92.93h-1.4v.87H45Zm5.22,9.48A50.16,50.16,0,0,1,2.33,54.7H0a52.49,52.49,0,0,0,50.2,50Z"/><path class="cls-38" d="M16.87,26.23H32v.87H16.87Zm1-.79H33.77v-.88H17.89Zm1.29-1.67h17.6V22.9H19.18Zm1.29-1.67H37.6v-.87H20.47Zm1.1-1.66H41.36v-.88H21.57ZM23,18.77H40.28v-.88H23Zm2.07-1.67h9.81v-.87H25.07Zm12.29,0H45v-.87H37.36Zm.74-1.67h6.18v-.87H38.1Zm1.73-2.54v.88h1.94v-.88ZM27.39,15.43h7.08v-.87H27.39Zm2.75-1.66h4.33v-.88H30.14Zm3.23-1.67H39v-.88H33.37Zm4.17-1.67h6V9.56h-6ZM43.8,8.76h8.77V7.89H43.8Zm3.55,1.67H51.5V9.55H47.35Zm1,1.67h1.86v-.87H48.32ZM16.12,28.77H31.33V27.9H16.12Zm14.64.79H15.66v.88h15.1Zm-.17,2.55v-.88H28.41v.88Zm-15.09,0h9.24v-.88H15.5Zm.2,1.66h1V32.9h-1Zm6.93-.87H18v.87h4.66ZM21,34.57H18.05v.87H21Zm-.57,2.54v-.88H18.18v.88Zm0,.79H17.67v.88h2.69Zm4.33,1.67h-6.1v.87h6.1Zm-1.4-.79h1.78V37.9H23.29Zm2.31,2.46H20.9v.87h4.7Zm.95,1.66H22.88v.88h3.67ZM27,44.57H24.69v.88H27Zm-1,2.54h5.16v-.87H26Z"/><path class="cls-39" d="M54.86,0V2.34A50.16,50.16,0,0,1,102.4,50h2.33A52.49,52.49,0,0,0,54.86,0Z"/><path class="cls-40" d="M0,50H2.33A50.15,50.15,0,0,1,50.2,2.33V0A52.48,52.48,0,0,0,0,50Z"/></g></g></svg>