<svg id="Group_2" data-name="Group 2" xmlns="http://www.w3.org/2000/svg" width="237.678" height="59.999" viewBox="0 0 237.678 59.999">
  <path id="Path_198" data-name="Path 198" d="M441.356,447.268h2.656v12.066h-2.656Z" transform="translate(-366.845 -431.278)" fill="#444"/>
  <path id="Path_199" data-name="Path 199" d="M442.714,447.268h2.446l5.656,7.431v-7.431h2.62v12.066h-2.262l-5.841-7.666v7.666h-2.621Z" transform="translate(-361.238 -431.278)" fill="#444"/>
  <path id="Path_200" data-name="Path 200" d="M449.125,449.719h-3.672v-2.451h10v2.451h-3.672v9.615h-2.656Z" transform="translate(-349.932 -431.278)" fill="#444"/>
  <path id="Path_201" data-name="Path 201" d="M448.051,447.268h9.1v2.364h-6.466v2.446h5.692v2.364h-5.692v2.533h6.554v2.359h-9.19Z" transform="translate(-339.207 -431.278)" fill="#444"/>
  <path id="Path_202" data-name="Path 202" d="M450.555,447.268h5.518a4.809,4.809,0,0,1,3.513,1.226,3.769,3.769,0,0,1,1.036,2.759v.036a3.748,3.748,0,0,1-2.585,3.738l2.949,4.308h-3.1l-2.585-3.861h-2.087v3.861h-2.656Zm5.344,5.862c1.292,0,2.036-.687,2.036-1.7v-.036c0-1.138-.795-1.723-2.087-1.723h-2.636v3.462Z" transform="translate(-328.87 -431.278)" fill="#444"/>
  <path id="Path_203" data-name="Path 203" d="M453.237,447.268h2.446l5.656,7.431v-7.431h2.62v12.066H461.7l-5.841-7.666v7.666h-2.62Z" transform="translate(-317.798 -431.278)" fill="#444"/>
  <path id="Path_204" data-name="Path 204" d="M461.088,447.252h2.451l5.169,12.148h-2.774l-1.1-2.7h-5.1l-1.1,2.7h-2.707Zm2.795,7.1-1.605-3.918-1.6,3.918Z" transform="translate(-306.727 -431.344)" fill="#444"/>
  <path id="Path_205" data-name="Path 205" d="M462.253,449.719h-3.672v-2.451h10v2.451h-3.672v9.615h-2.656Z" transform="translate(-295.738 -431.278)" fill="#444"/>
  <path id="Path_206" data-name="Path 206" d="M461.2,447.268h2.651v12.066H461.2Z" transform="translate(-284.914 -431.278)" fill="#444"/>
  <path id="Path_207" data-name="Path 207" d="M462.456,453.5v-.036a6.416,6.416,0,0,1,12.825-.036v.036a6.416,6.416,0,0,1-12.825.036Zm10.051,0v-.036a3.67,3.67,0,0,0-3.656-3.795,3.614,3.614,0,0,0-3.62,3.759v.036a3.666,3.666,0,0,0,3.656,3.79A3.606,3.606,0,0,0,472.507,453.5Z" transform="translate(-279.741 -431.444)" fill="#444"/>
  <path id="Path_208" data-name="Path 208" d="M465.669,447.268h2.451l5.651,7.431v-7.431h2.621v12.066h-2.256l-5.846-7.666v7.666h-2.62Z" transform="translate(-266.478 -431.278)" fill="#444"/>
  <path id="Path_209" data-name="Path 209" d="M473.544,447.252H476l5.169,12.148H478.39l-1.1-2.7h-5.1l-1.1,2.7h-2.708Zm2.795,7.1-1.605-3.918-1.6,3.918Z" transform="translate(-255.307 -431.344)" fill="#444"/>
  <path id="Path_210" data-name="Path 210" d="M471.484,447.268h2.651v9.656h6.015v2.41h-8.667Z" transform="translate(-242.473 -431.278)" fill="#444"/>
  <path id="Path_211" data-name="Path 211" d="M441.356,451.42h.508v6.348h4v.467h-4.508Z" transform="translate(-366.845 -414.139)" fill="#444"/>
  <path id="Path_212" data-name="Path 212" d="M447.491,451.41h.487l3.174,6.866h-.559l-.867-1.908h-4.02l-.867,1.908h-.523Zm2.026,4.5-1.795-3.943-1.8,3.943Z" transform="translate(-354.621 -414.18)" fill="#444"/>
  <path id="Path_213" data-name="Path 213" d="M447.83,451.42h.477l4.7,5.928V451.42h.487v6.815h-.38l-4.8-6.056v6.056h-.487Z" transform="translate(-340.119 -414.139)" fill="#444"/>
  <path id="Path_214" data-name="Path 214" d="M451.17,454.94v-.016a3.405,3.405,0,0,1,3.369-3.528,3.581,3.581,0,0,1,2.492.9l-.333.38a3.06,3.06,0,0,0-2.189-.82,2.9,2.9,0,0,0-2.81,3.051v.02A2.842,2.842,0,0,0,454.616,458a3.53,3.53,0,0,0,2.174-.78v-1.959h-2.282V454.8h2.764v2.626a4.068,4.068,0,0,1-2.677,1.026A3.324,3.324,0,0,1,451.17,454.94Z" transform="translate(-326.331 -414.234)" fill="#444"/>
  <path id="Path_215" data-name="Path 215" d="M454.6,455.4V451.42h.508v3.933a2.221,2.221,0,0,0,2.308,2.533,2.166,2.166,0,0,0,2.267-2.482V451.42h.508v3.923a2.8,2.8,0,1,1-5.59.061Z" transform="translate(-312.188 -414.139)" fill="#444"/>
  <path id="Path_216" data-name="Path 216" d="M460.971,451.41h.487l3.174,6.866h-.554l-.867-1.908h-4.02l-.867,1.908H457.8Zm2.026,4.5-1.79-3.943-1.8,3.943Z" transform="translate(-298.974 -414.18)" fill="#444"/>
  <path id="Path_217" data-name="Path 217" d="M461.176,454.94v-.016a3.405,3.405,0,0,1,3.369-3.528,3.581,3.581,0,0,1,2.492.9l-.333.38a3.069,3.069,0,0,0-2.19-.82A2.9,2.9,0,0,0,461.7,454.9v.02A2.846,2.846,0,0,0,464.622,458a3.515,3.515,0,0,0,2.169-.78v-1.959h-2.277V454.8h2.764v2.626a4.068,4.068,0,0,1-2.677,1.026A3.324,3.324,0,0,1,461.176,454.94Z" transform="translate(-285.025 -414.234)" fill="#444"/>
  <path id="Path_218" data-name="Path 218" d="M464.622,451.42h4.851v.466H465.13v2.677h3.908v.467H465.13v2.738h4.395v.467h-4.9Z" transform="translate(-270.8 -414.139)" fill="#444"/>
  <path id="Path_219" data-name="Path 219" d="M467.708,457.319l.333-.38a3.3,3.3,0,0,0,2.441,1.015c1.026,0,1.728-.574,1.728-1.354v-.021c0-.718-.385-1.138-1.928-1.451-1.636-.328-2.3-.887-2.3-1.918v-.021a1.976,1.976,0,0,1,2.195-1.79,3.4,3.4,0,0,1,2.333.826l-.318.4a2.95,2.95,0,0,0-2.036-.769c-1.005,0-1.667.574-1.667,1.287v.021c0,.718.369,1.159,1.985,1.487,1.579.323,2.241.887,2.241,1.882v.015a2,2,0,0,1-2.256,1.861A3.876,3.876,0,0,1,467.708,457.319Z" transform="translate(-258.06 -414.217)" fill="#444"/>
  <path id="Path_220" data-name="Path 220" d="M434.011,445.217h1.636v.5h-1.636Zm.518,1.451H438.1v-.5h-3.569Zm2.462.964h2.969v-.5h-2.969Zm4.513.451h-7.066v.5H441.5Zm1.318.954h-6.944v.5h6.944Zm-5.882,1.456h7.077V450h-7.077Zm.143.959h7.984v-.5h-7.984Zm-.615.954h2.79v-.5h-2.79Zm.405.954H438.9v-.5h-2.031Zm9.148-1.456h-4.569v.5h4.569Zm.857.954H443.7v.5h3.18Zm.785.969H446.18v.5h1.482Zm.692.944H446.77v.5h1.585Zm-1.564,1.456h2.215v-.5H446.79Z" transform="translate(-397.165 -439.745)" fill="#444"/>
  <g id="Group_1" data-name="Group 1" transform="translate(31.425 15.027)">
    <rect id="Rectangle_2" data-name="Rectangle 2" width="3.684" height="0.501" transform="translate(10.452)" fill="#444"/>
    <rect id="Rectangle_3" data-name="Rectangle 3" width="5.738" height="0.501" transform="translate(9.744 0.953)" fill="#444"/>
    <rect id="Rectangle_4" data-name="Rectangle 4" width="11.781" height="0.501" transform="translate(9.224 1.908)" fill="#444"/>
    <rect id="Rectangle_5" data-name="Rectangle 5" width="12.831" height="0.501" transform="translate(8.728 2.864)" fill="#444"/>
    <rect id="Rectangle_6" data-name="Rectangle 6" width="13.623" height="0.501" transform="translate(8.398 3.819)" fill="#444"/>
    <rect id="Rectangle_7" data-name="Rectangle 7" width="13.8" height="0.501" transform="translate(8.634 4.774)" fill="#444"/>
    <rect id="Rectangle_8" data-name="Rectangle 8" width="13.991" height="0.501" transform="translate(8.846 5.729)" fill="#444"/>
    <rect id="Rectangle_9" data-name="Rectangle 9" width="14.417" height="0.501" transform="translate(8.747 6.684)" fill="#444"/>
    <rect id="Rectangle_10" data-name="Rectangle 10" width="15.36" height="0.501" transform="translate(8.09 7.639)" fill="#444"/>
    <rect id="Rectangle_11" data-name="Rectangle 11" width="15.281" height="0.501" transform="translate(8.421 8.595)" fill="#444"/>
    <rect id="Rectangle_12" data-name="Rectangle 12" width="14.478" height="0.501" transform="translate(9.437 9.55)" fill="#444"/>
    <rect id="Rectangle_13" data-name="Rectangle 13" width="13.803" height="0.501" transform="translate(10.288 10.505)" fill="#444"/>
    <rect id="Rectangle_14" data-name="Rectangle 14" width="13.303" height="0.501" transform="translate(10.925 11.46)" fill="#444"/>
    <rect id="Rectangle_15" data-name="Rectangle 15" width="12.697" height="0.501" transform="translate(11.634 12.415)" fill="#444"/>
    <rect id="Rectangle_16" data-name="Rectangle 16" width="6.315" height="0.501" transform="translate(18.083 13.37)" fill="#444"/>
    <rect id="Rectangle_17" data-name="Rectangle 17" width="7.078" height="0.501" transform="translate(17.351 14.326)" fill="#444"/>
    <rect id="Rectangle_18" data-name="Rectangle 18" width="6.832" height="0.501" transform="translate(17.598 15.281)" fill="#444"/>
    <rect id="Rectangle_19" data-name="Rectangle 19" width="6.213" height="0.501" transform="translate(18.178 16.236)" fill="#444"/>
    <rect id="Rectangle_20" data-name="Rectangle 20" width="5.736" height="0.501" transform="translate(18.58 17.191)" fill="#444"/>
    <rect id="Rectangle_21" data-name="Rectangle 21" width="5.675" height="0.501" transform="translate(18.532 18.146)" fill="#444"/>
    <rect id="Rectangle_22" data-name="Rectangle 22" width="5.979" height="0.501" transform="translate(18.083 19.101)" fill="#444"/>
    <rect id="Rectangle_23" data-name="Rectangle 23" width="6.123" height="0.501" transform="translate(17.753 20.057)" fill="#444"/>
    <rect id="Rectangle_24" data-name="Rectangle 24" width="5.885" height="0.501" transform="translate(17.776 21.012)" fill="#444"/>
    <rect id="Rectangle_25" data-name="Rectangle 25" width="5.462" height="0.501" transform="translate(17.942 21.967)" fill="#444"/>
    <rect id="Rectangle_26" data-name="Rectangle 26" width="5.103" height="0.501" transform="translate(17.989 22.922)" fill="#444"/>
    <rect id="Rectangle_27" data-name="Rectangle 27" width="4.745" height="0.501" transform="translate(17.989 23.877)" fill="#444"/>
    <rect id="Rectangle_28" data-name="Rectangle 28" width="4.341" height="0.501" transform="translate(18.013 24.832)" fill="#444"/>
    <rect id="Rectangle_29" data-name="Rectangle 29" width="4.13" height="0.501" transform="translate(17.8 25.788)" fill="#444"/>
    <rect id="Rectangle_30" data-name="Rectangle 30" width="4.147" height="0.501" transform="translate(17.328 26.743)" fill="#444"/>
    <rect id="Rectangle_31" data-name="Rectangle 31" width="4.112" height="0.501" transform="translate(16.808 27.698)" fill="#444"/>
    <rect id="Rectangle_32" data-name="Rectangle 32" width="3.314" height="0.501" transform="translate(17.005 28.653)" fill="#444"/>
    <rect id="Rectangle_33" data-name="Rectangle 33" width="1.841" height="0.501" transform="translate(17.8 29.608)" fill="#444"/>
    <path id="Path_221" data-name="Path 221" d="M460.184,450.26a28.726,28.726,0,0,1-27.23,27.322v1.339a30.071,30.071,0,0,0,28.569-28.661Z" transform="translate(-432.954 -433.955)" fill="#444"/>
  </g>
  <path id="Path_222" data-name="Path 222" d="M447.015,449.631h-2.22v-.5h2.22Zm3.595.451h-5.933v.5h5.933Zm2.313.954h-8.528v.5h8.528Zm.708.959h-9.544v.5h9.544Zm-.046.954h-9.59v.5h9.59Zm-.308.954h-9.733v.5h9.733Zm4.323.954H443.236v.5H457.6Zm2.384.959H443.072v.5h16.912Zm-16.651,1.456h17.292v-.5H443.333Zm.728.451v.5h16.656v-.5Zm.662,1.456H459.7v-.5H444.723Zm.143.954h14.02v-.5h-14.02Zm-.02.959h13.369v-.5H444.846Zm13.179.451H445.739v.5h12.287ZM446.923,463h11.195v-.5H446.923Zm1.369.959h9.826v-.5h-9.826Zm.282.954H458.1v-.5h-9.523Zm7.631.451H448.41v.5H456.2Zm-8.123,1.456h7.866v-.5h-7.866Zm7.2.456H448.2v.5h7.087Zm-.713.954h-6v.5h6Zm-1.226.954h-4.42v.5h4.42Zm-.308.959h-3.826v.5h3.826Zm-.328.954h-3.261v.5h3.261Zm-.744.954h-2.21v.5h2.21Zm-.323.954h-1.867v.5h1.867Zm-.02.959h-1.677v.5h1.677Zm.067.954h-1.369v.5h1.369Zm.236.954h-1.036v.5h1.036Zm.661.954h-.8v.5h.8Zm2.99,5.431a28.726,28.726,0,0,1-27.42-27.328h-1.333A30.06,30.06,0,0,0,455.579,483.6Z" transform="translate(-426.826 -423.596)" fill="#444"/>
  <path id="Path_223" data-name="Path 223" d="M429.341,455.539h8.692v.5h-8.692Zm.585-.457h9.092v-.5h-9.092Zm.738-.954h10.082v-.5H430.665Zm.744-.954h9.81v-.5h-9.81Zm.626-.954h11.333v-.5H432.034Zm.82-.959h9.9v-.5h-9.9Zm1.179-.954h5.626v-.5h-5.626Zm7.041,0h4.369v-.5h-4.369Zm.426-.954h3.544v-.5H441.5Zm.995-1.457v.5H443.6v-.5Zm-7.128,1.457h4.056v-.5h-4.056Zm1.574-.954h2.482v-.5h-2.482Zm1.851-.959H442v-.5h-3.205Zm2.39-.954h3.436v-.5h-3.436Zm3.584-.954h5.026v-.5h-5.026Zm2.036.954h2.375v-.5H446.8Zm.559.959h1.062v-.5h-1.062Zm-18.451,9.549h8.718v-.5h-8.718Zm8.385.456h-8.646v.5H437.3ZM437.2,458.9v-.5h-1.251v.5Zm-8.646,0h5.292v-.5h-5.292Zm.118.959h.564v-.5h-.564Zm3.969-.5h-2.672v.5h2.672Zm-.954.954h-1.672v.5h1.672Zm-.323,1.457v-.5H430.09v.5Zm-.026.456H429.8v.5h1.544Zm2.482.954h-3.5v.5h3.5Zm-.805-.451h1.015v-.5h-1.015Zm1.323,1.405h-2.692v.5h2.692Zm.543.959h-2.1v.5h2.1Zm.262.954h-1.323v.5h1.323Zm-.569,1.456h2.954V467h-2.954Z" transform="translate(-419.68 -440.513)" fill="#444"/>
  <path id="Path_224" data-name="Path 224" d="M432.954,444.151v1.333a28.734,28.734,0,0,1,27.23,27.323h1.338A30.066,30.066,0,0,0,432.954,444.151Z" transform="translate(-401.529 -444.146)" fill="#444"/>
  <path id="Path_225" data-name="Path 225" d="M426.826,472.811h1.333a28.725,28.725,0,0,1,27.42-27.322V444.15A30.059,30.059,0,0,0,426.826,472.811Z" transform="translate(-426.826 -444.15)" fill="#444"/>
</svg>
