<svg xmlns="http://www.w3.org/2000/svg" xmlns:xlink="http://www.w3.org/1999/xlink" width="152.946" height="145.536" viewBox="0 0 152.946 145.536">
  <defs>
    <linearGradient id="linear-gradient" y1="0.426" x2="1" y2="1" gradientUnits="objectBoundingBox">
      <stop offset="0" stop-color="#b2595d"/>
      <stop offset="1" stop-color="#9e3e49"/>
    </linearGradient>
    <filter id="Path_8478" x="0" y="0" width="152.946" height="145.536" filterUnits="userSpaceOnUse">
      <feOffset dy="3" input="SourceAlpha"/>
      <feGaussianBlur stdDeviation="15" result="blur"/>
      <feFlood flood-opacity="0.078"/>
      <feComposite operator="in" in2="blur"/>
      <feComposite in="SourceGraphic"/>
    </filter>
  </defs>
  <g transform="matrix(1, 0, 0, 1, 0, 0)" filter="url(#Path_8478)">
    <path id="Path_8478-2" data-name="Path 8478" d="M68.885,62.936c12.168,0,19.656-7.566,19.656-17.862v-.156c0-10.14-7.254-14.04-14.664-15.288L87.683,16.448V7.4H50.789V17.7h21.45L59.213,30.8l1.872,7.644h4.992c6.708,0,10.686,2.5,10.686,6.942v.156c0,4.056-3.2,6.63-7.722,6.63-5.538,0-9.438-2.34-13.182-6.552L47.591,53.5C52.271,59.036,59.057,62.936,68.885,62.936ZM97.9,62h12.636V49.52H97.9Z" transform="translate(-2.59 34.6)" fill="url(#linear-gradient)"/>
  </g>
</svg>
