<svg xmlns="http://www.w3.org/2000/svg" width="271" height="271" viewBox="0 0 271 271">
  <g id="Group_698" data-name="Group 698" transform="translate(0.465 -0.486)">
    <circle id="Ellipse_113" data-name="Ellipse 113" cx="135.5" cy="135.5" r="135.5" transform="translate(-0.465 0.486)" fill="#345079"/>
    <g id="test" transform="translate(75.275 58.681)">
      <path id="Path_8189" data-name="Path 8189" d="M.5,155.268H120.912v-124L89.642,0H.5Zm0,0" transform="translate(-0.5)" fill="#496c9f"/>
      <path id="Path_8190" data-name="Path 8190" d="M325.719,31.269h-31.27V0" transform="translate(-205.307)" fill="#213c62"/>
      <path id="Path_8191" data-name="Path 8191" d="M407.413,170.046l-27.382,66.925-16.478,15.17-1.119-22.369,27.383-66.925a3.743,3.743,0,0,1,4.877-2.046l10.674,4.369A3.74,3.74,0,0,1,407.413,170.046Zm0,0" transform="translate(-252.674 -111.843)" fill="#fff"/>
      <path id="Path_8192" data-name="Path 8192" d="M400.03,162.986l-36.477,89.155-1.119-22.369,27.383-66.925a3.743,3.743,0,0,1,4.877-2.046Zm0,0" transform="translate(-252.674 -111.843)" fill="#f4f0f0"/>
      <path id="Path_8193" data-name="Path 8193" d="M380.031,396.074l-16.478,15.17-.088-1.744-1.032-20.625Zm0,0" transform="translate(-252.674 -270.945)" fill="#95b7a4"/>
      <path id="Path_8194" data-name="Path 8194" d="M458.142,170.046l-5.3,12.963-17.6-7.2,5.3-12.962a3.743,3.743,0,0,1,4.877-2.046L456.1,165.17A3.74,3.74,0,0,1,458.142,170.046Zm0,0" transform="translate(-303.403 -111.843)" fill="#95b7a4"/>
      <path id="Path_8195" data-name="Path 8195" d="M452.517,163.063l-7.973,19.324-9.441-3.863,6.325-15.3a4.356,4.356,0,0,1,5.676-2.381Zm0,0" transform="translate(-303.858 -114.891)" fill="#345079"/>
      <path id="Path_8196" data-name="Path 8196" d="M362.434,388.875l9.075,3.712-7.921,19.361Zm0,0" transform="translate(-252.95 -270.945)" fill="#345079"/>
      <g id="Group_498" data-name="Group 498" transform="translate(13.628 23.569)">
        <path id="Path_8197" data-name="Path 8197" d="M180.3,82.473H150.831a2.377,2.377,0,1,1,0-4.754H180.3a2.377,2.377,0,0,1,0,4.754Zm0,0" transform="translate(-117.213 -77.719)" fill="#95b7a4"/>
        <path id="Path_8198" data-name="Path 8198" d="M66.6,195.51H47.814a2.376,2.376,0,0,1-2.376-2.376V174.345a2.376,2.376,0,0,1,2.376-2.376H66.6a2.376,2.376,0,0,1,2.376,2.376v18.789A2.376,2.376,0,0,1,66.6,195.51Zm-16.411-4.753H64.226V176.721H50.191Zm0,0" transform="translate(-45.437 -143.387)" fill="#95b7a4"/>
        <path id="Path_8199" data-name="Path 8199" d="M214.748,188.893H163.892a2.376,2.376,0,0,1,0-4.753h50.856a2.376,2.376,0,0,1,0,4.753Zm0,0" transform="translate(-126.314 -151.867)" fill="#95b7a4"/>
        <path id="Path_8200" data-name="Path 8200" d="M204.767,226.508H163.892a2.377,2.377,0,0,1,0-4.754h40.875a2.377,2.377,0,0,1,0,4.754Zm0,0" transform="translate(-126.314 -178.074)" fill="#95b7a4"/>
      </g>
      <path id="Path_8201" data-name="Path 8201" d="M74.394,178.239a2.376,2.376,0,0,1-1.68-.7L68.175,173a2.376,2.376,0,0,1,3.361-3.361l2.645,2.645,9.965-12.684a2.377,2.377,0,0,1,3.737,2.937L76.264,177.33a2.378,2.378,0,0,1-1.727.905Q74.465,178.239,74.394,178.239Zm0,0" transform="translate(-47.167 -110.571)" fill="#fff"/>
      <path id="Path_8202" data-name="Path 8202" d="M66.6,298.428H47.814a2.376,2.376,0,0,1-2.376-2.376V277.263a2.376,2.376,0,0,1,2.376-2.376H66.6a2.376,2.376,0,0,1,2.376,2.376v18.789A2.376,2.376,0,0,1,66.6,298.428Zm-16.411-4.754H64.226V279.639H50.191Zm0,0" transform="translate(-31.81 -191.525)" fill="#95b7a4"/>
      <path id="Path_8203" data-name="Path 8203" d="M214.748,291.808H163.892a2.377,2.377,0,0,1,0-4.754h50.856a2.377,2.377,0,0,1,0,4.754Zm0,0" transform="translate(-112.686 -200.003)" fill="#95b7a4"/>
      <path id="Path_8204" data-name="Path 8204" d="M179.1,329.424H163.892a2.376,2.376,0,1,1,0-4.753H179.1a2.376,2.376,0,0,1,0,4.753Zm0,0" transform="translate(-112.686 -226.212)" fill="#95b7a4"/>
      <path id="Path_8205" data-name="Path 8205" d="M74.394,281.155a2.373,2.373,0,0,1-1.68-.7l-4.539-4.538a2.376,2.376,0,0,1,3.361-3.361l2.645,2.644,9.965-12.682a2.376,2.376,0,0,1,3.737,2.935l-11.62,14.79a2.377,2.377,0,0,1-1.727.9C74.489,281.154,74.442,281.155,74.394,281.155Zm0,0" transform="translate(-47.167 -182.276)" fill="#fff"/>
      <path id="Path_8206" data-name="Path 8206" d="M66.6,401.342H47.814a2.376,2.376,0,0,1-2.376-2.376V380.177a2.376,2.376,0,0,1,2.376-2.376H66.6a2.376,2.376,0,0,1,2.376,2.376v18.789A2.376,2.376,0,0,1,66.6,401.342ZM50.191,396.59H64.226V382.554H50.191Zm0,0" transform="translate(-31.81 -263.23)" fill="#95b7a4"/>
      <path id="Path_8207" data-name="Path 8207" d="M214.748,394.725H163.892a2.376,2.376,0,0,1,0-4.753h50.856a2.376,2.376,0,1,1,0,4.753Zm0,0" transform="translate(-112.686 -271.71)" fill="#95b7a4"/>
      <path id="Path_8208" data-name="Path 8208" d="M207.143,432.34H163.892a2.377,2.377,0,0,1,0-4.754h43.251a2.377,2.377,0,0,1,0,4.754Zm0,0" transform="translate(-112.686 -297.917)" fill="#95b7a4"/>
    </g>
  </g>
</svg>
