<svg xmlns="http://www.w3.org/2000/svg" width="271" height="271" viewBox="0 0 271 271">
  <g id="Group_691" data-name="Group 691" transform="translate(-185 -3180)">
    <circle id="Ellipse_115" data-name="Ellipse 115" cx="135.5" cy="135.5" r="135.5" transform="translate(185 3180)" fill="#345079"/>
    <g id="id" transform="translate(237.879 3211.793)">
      <path id="Path_8233" data-name="Path 8233" d="M130.331,23.959H35.782a8.694,8.694,0,0,0-8.695,8.695V162.512a8.7,8.7,0,0,0,8.695,8.695h94.548a8.7,8.7,0,0,0,8.694-8.695V32.654A8.694,8.694,0,0,0,130.331,23.959Z" transform="translate(0.099 11.501)" fill="#496c9f"/>
      <path id="Path_8234" data-name="Path 8234" d="M26.989,73.71V112.68a8.7,8.7,0,0,0,8.695,8.695h94.548a8.7,8.7,0,0,0,8.695-8.695V73.71Z" transform="translate(0 61.333)" fill="#95b7a4"/>
      <path id="Path_8235" data-name="Path 8235" d="M51.285,57.642H66.321V80.224H51.285Z" transform="translate(24.336 45.239)" fill="#f4f0f0"/>
      <path id="Path_8236" data-name="Path 8236" d="M102.781,86.364A71.4,71.4,0,0,0,100.8,74.849a5.5,5.5,0,0,0-1.942-2.866c-7.9-6.116-19.69-9.745-19.69-9.745L71.92,75.72H70.439L63.2,62.245S51.4,65.874,43.507,71.99a5.5,5.5,0,0,0-1.942,2.866,71.4,71.4,0,0,0-1.983,11.515,103.732,103.732,0,0,0-.51,16.65l32.109-.007h32.111A103.727,103.727,0,0,0,102.781,86.364Z" transform="translate(11.974 49.842)" fill="#213c62"/>
      <path id="Path_8237" data-name="Path 8237" d="M72.622,63.041c-1.457-.529-2.349-.8-2.349-.8L62.29,75.452h0L54.305,62.244s-.892.273-2.349.8c-1.1.395-2.529.933-4.134,1.61l.964,12.006,1.688,2.843.444,3.643c3.775,14.607,11.37,19.863,11.37,19.863h0c.051-.035,7.606-5.312,11.368-19.869L74.1,79.5l1.688-2.843.964-12.006C75.15,63.973,73.725,63.435,72.622,63.041Z" transform="translate(20.867 49.842)" fill="#95b7a4"/>
      <path id="Path_8242" data-name="Path 8242" d="M49.8,80,48.489,82.79C52.264,97.4,63.1,102.809,63.1,102.809c-9.415-13.97-10.262-36.67-10.333-39.965-.009-.264-.009-.4-.009-.4l-4.125,2.013-1.619,13.58Z" transform="translate(20.057 50.045)" fill="#345079"/>
      <path id="Path_8243" data-name="Path 8243" d="M68.347,80l1.314,2.789c-3.775,14.607-14.611,20.027-14.611,20.027,9.415-13.97,10.262-36.678,10.334-39.973.009-.265.009-.4.009-.4l4.125,2.013,1.619,13.58Z" transform="translate(28.106 50.042)" fill="#345079"/>
      <path id="Path_8244" data-name="Path 8244" d="M64.864,50.99c-1.082-.209-2.268,1.216-2.649,3.184s.187,3.733,1.269,3.942,2.268-1.216,2.649-3.184S65.946,51.2,64.864,50.99Z" transform="translate(34.165 38.556)" fill="#fff"/>
      <path id="Path_8245" data-name="Path 8245" d="M47.436,50.99c1.082-.209,2.268,1.216,2.649,3.184s-.187,3.733-1.269,3.942-2.268-1.216-2.649-3.184S46.354,51.2,47.436,50.99Z" transform="translate(19.09 38.556)" fill="#fff"/>
      <g id="Group_504" data-name="Group 504" transform="translate(57.049 47.424)">
        <path id="Path_8247" data-name="Path 8247" d="M82.232,50.979c-.928-5.57-6.548-3.857-6.548-3.857l-.007.014-.011-.01.018,0s1.146-1.15-.415-4.283-9.436-5.215-16.985-3.133S47.4,46.542,46.1,54.546c-1.089,6.7-3.861,36.855-3.077,37.807H46.1l12.185-7.812L52.257,56.368c4.435-3.224,14.1-1.55,20.727-6.709,1.042,4.116-.869,5.888,4.854,15.414L70.232,85.239l15.462,7.114-5.315-26.1.008,0C82.007,61.67,83.16,56.549,82.232,50.979Z" transform="translate(-38.195 -20.989)" fill="#213c62"/>
        <path id="Path_8248" data-name="Path 8248" d="M42.007,86.473h2.059v14.582H42.007Z" transform="translate(-42.007 26.693)" fill="#213c62"/>
        <path id="Path_8249" data-name="Path 8249" d="M47.165,86.473h1.029v14.582H47.165Z" transform="translate(-36.84 26.693)" fill="#213c62"/>
        <path id="Path_8250" data-name="Path 8250" d="M44.294,86.473h3.535v14.582H44.294Z" transform="translate(-39.716 26.693)" fill="#213c62"/>
        <path id="Path_8251" data-name="Path 8251" d="M48.884,86.473h2.059v14.582H48.884Z" transform="translate(-35.118 26.693)" fill="#213c62"/>
        <path id="Path_8252" data-name="Path 8252" d="M54.042,86.473h1.029v14.582H54.042Z" transform="translate(-29.952 26.693)" fill="#213c62"/>
        <path id="Path_8253" data-name="Path 8253" d="M51.171,86.473h3.535v14.582H51.171Z" transform="translate(-32.827 26.693)" fill="#213c62"/>
        <path id="Path_8254" data-name="Path 8254" d="M55.345,86.473H57.4v14.582H55.345Z" transform="translate(-28.646 26.693)" fill="#213c62"/>
        <path id="Path_8255" data-name="Path 8255" d="M60.5,86.473h1.029v14.582H60.5Z" transform="translate(-23.48 26.693)" fill="#213c62"/>
        <path id="Path_8256" data-name="Path 8256" d="M57.632,86.473h3.535v14.582H57.632Z" transform="translate(-26.356 26.693)" fill="#213c62"/>
        <path id="Path_8257" data-name="Path 8257" d="M62.222,86.473h2.059v14.582H62.222Z" transform="translate(-21.758 26.693)" fill="#213c62"/>
        <path id="Path_8258" data-name="Path 8258" d="M67.381,86.473H68.41v14.582H67.381Z" transform="translate(-16.591 26.693)" fill="#213c62"/>
        <path id="Path_8259" data-name="Path 8259" d="M64.509,86.473h3.535v14.582H64.509Z" transform="translate(-19.467 26.693)" fill="#213c62"/>
        <path id="Path_8260" data-name="Path 8260" d="M47.025,29.936H79.148V35H47.025Z" transform="translate(-36.98 -29.936)" fill="#213c62"/>
      </g>
      <path id="Path_8261" data-name="Path 8261" d="M48.1,12.477H75.866V49.955H48.1Z" transform="translate(21.143 0)" fill="#95b7a4"/>
      <path id="Path_8262" data-name="Path 8262" d="M58.592,15.382A7.111,7.111,0,1,0,65.7,22.493,7.111,7.111,0,0,0,58.592,15.382Z" transform="translate(24.532 2.909)" fill="#345079"/>
      <path id="Path_8246" data-name="Path 8246" d="M75.994,53.6a16.089,16.089,0,0,1,1.385,9.543c-2.148,8.655-6.2,17.028-13.784,17.028-7.5,0-9.836-4.932-12.067-13.484a30.86,30.86,0,0,1-.822-7.022c0-9.047,1.272-9.113,10.216-9.609.248-.021,1.016-.272,1.264-.272h0c.372,0,1.038-.509,1.41-.488l2.873-.566,3.955-1.52c.186,0,1.67-2,1.855-1.963C75.588,53.373,73.742,49.8,75.994,53.6Z" transform="translate(19.679 30.147)" fill="#fff"/>
    </g>
    <g id="Group_505" data-name="Group 505" transform="translate(-1 -41)">
      <circle id="Ellipse_117" data-name="Ellipse 117" cx="15.5" cy="15.5" r="15.5" transform="translate(363 3307)" fill="#95b7a4"/>
      <path id="Path_8263" data-name="Path 8263" d="M41.344-15.75A19.72,19.72,0,0,0,38.6-25.922a20.557,20.557,0,0,0-7.424-7.424A19.72,19.72,0,0,0,21-36.094a19.72,19.72,0,0,0-10.172,2.748A20.557,20.557,0,0,0,3.4-25.922,19.72,19.72,0,0,0,.656-15.75,19.72,19.72,0,0,0,3.4-5.578a20.557,20.557,0,0,0,7.424,7.424A19.72,19.72,0,0,0,21,4.594,19.72,19.72,0,0,0,31.172,1.846,20.557,20.557,0,0,0,38.6-5.578,19.72,19.72,0,0,0,41.344-15.75ZM18.621-5a1.092,1.092,0,0,1-.9.41,1.092,1.092,0,0,1-.9-.41L8.285-13.535a1.092,1.092,0,0,1-.41-.9,1.092,1.092,0,0,1,.41-.9l1.8-1.887a1.3,1.3,0,0,1,.943-.41,1.3,1.3,0,0,1,.943.41l5.742,5.742,12.3-12.3a1.3,1.3,0,0,1,.943-.41,1.3,1.3,0,0,1,.943.41l1.8,1.887a1.092,1.092,0,0,1,.41.9,1.092,1.092,0,0,1-.41.9Z" transform="translate(357 3338)" fill="#fff"/>
    </g>
  </g>
</svg>
