<svg xmlns="http://www.w3.org/2000/svg" xmlns:xlink="http://www.w3.org/1999/xlink" width="271" height="271" viewBox="0 0 271 271">
  <defs>
    <clipPath id="clip-path">
      <circle id="Ellipse_116" data-name="Ellipse 116" cx="135.5" cy="135.5" r="135.5" transform="translate(83 2847)" fill="#345079"/>
    </clipPath>
  </defs>
  <g id="Group_641" data-name="Group 641" transform="translate(-185 -2737)">
    <circle id="Ellipse_114" data-name="Ellipse 114" cx="135.5" cy="135.5" r="135.5" transform="translate(185 2737)" fill="#345079"/>
    <g id="Mask_Group_11" data-name="Mask Group 11" transform="translate(102 -110)" clip-path="url(#clip-path)">
      <g id="presentation" transform="translate(92 2894.589)">
        <g id="Group_499" data-name="Group 499" transform="translate(172.768 226.356)">
          <path id="Path_8209" data-name="Path 8209" d="M260.322,317.87,223.441,153.577H206.676L244.4,321.223c.838,2.515,1.676,4.191,3.353,5.029a7.556,7.556,0,0,0,4.191.838h1.676C258.645,327.09,261.16,322.061,260.322,317.87Z" transform="translate(-79.943 -151.9)" fill="#344a5e"/>
          <path id="Path_8210" data-name="Path 8210" d="M158.366,153.287,121.484,318.418a7.72,7.72,0,0,0,5.868,9.22h1.676c1.676,0,3.353,0,4.191-.839a6.894,6.894,0,0,0,3.353-5.029l37.72-169.323H158.366Z" transform="translate(-121.323 -152.448)" fill="#344a5e"/>
          <path id="Path_8211" data-name="Path 8211" d="M178.979,153.577,175.626,303.62c0,4.191,3.353,8.383,7.544,8.383h0c4.191,0,7.544-3.353,8.383-7.544l3.353-150.881Z" transform="translate(-94.996 -151.9)" fill="#344a5e"/>
        </g>
        <path id="Path_8212" data-name="Path 8212" d="M124.2,15.831,311.127,20.86,306.1,232.094l-186.924-5.868Z" transform="translate(50.402 7.675)" fill="#496c9f"/>
        <g id="Group_501" data-name="Group 501" transform="translate(70.664 2.458)">
          <path id="Path_8215" data-name="Path 8215" d="M87.033,25.924c-.838,3.353-3.353,5.868-5.029,5.868-1.676-.838-2.515-3.353-1.676-6.706s3.353-5.868,5.029-5.868C87.872,19.218,88.709,22.571,87.033,25.924Z" transform="translate(-39.253 6.86)" fill="#fff"/>
          <path id="Path_8216" data-name="Path 8216" d="M57.8,26.2c.838,3.353,3.353,5.868,5.029,5.868,2.515-.838,2.515-4.191,1.676-7.544s-3.353-5.868-5.029-5.868C56.964,19.492,56.964,22.844,57.8,26.2Z" transform="translate(-50.258 6.586)" fill="#fff"/>
          <path id="Path_8217" data-name="Path 8217" d="M58.426,62.1l9.22-8.383s-2.515-10.059-2.515-12.573S59.264,23.541,61.778,16s1.676-13.412,14.25-14.25S91.116,5.938,95.307,10.13C99.5,15.159,98.66,30.248,98.66,32.762s-2.515,15.927-5.868,21.794v4.191l9.22,15.927V90.6l-9.22.838L52.557,83.056Z" transform="translate(-52.557 -1.655)" fill="#fff"/>
        </g>
        <path id="Path_8218" data-name="Path 8218" d="M97.087,57.674,87.028,42.586V38.4S73.616,50.13,62.719,36.719c0,0,7.544,19.279,35.206,24.308Z" transform="translate(23.033 17.802)" fill="#f4f0f0"/>
        <path id="Path_8219" data-name="Path 8219" d="M127.641,86.842s8.383-3.353,9.22-4.191c1.676-.838,2.515-2.515,5.029-3.353s5.868-3.353,7.544-3.353,4.191-.838,5.029-.838,7.544,2.515,7.544,2.515,0,3.353-2.515,3.353c-.838,0-7.544-1.676-8.383-1.676s2.515.838,2.515.838,6.706.839,7.544.839h.838c.838-.839,2.515,0,2.515,1.676h0c0,.838,0,.838-.838,1.676a2.924,2.924,0,0,0-1.676.838h-1.676c-.838,0,0,1.676,0,2.515a.821.821,0,0,1-.838.838h-1.676a4.138,4.138,0,0,1-.839,2.515c-.838.839-.838,0-.838,0s.838,2.515-3.353,4.191c-3.353,1.676-12.573,1.676-14.25,1.676-1.676-.839-9.22,4.191-9.22,4.191Z" transform="translate(54.508 36.412)" fill="#fff"/>
        <path id="Path_8220" data-name="Path 8220" d="M71.942,274.1a4.358,4.358,0,0,0,3.353-1.676c.838-.839.838-4.191,0-6.706-1.676-4.191-1.676-2.515-1.676-2.515l-22.632.838a12.467,12.467,0,0,0,0,5.868c.838,2.515,3.353,3.353,5.868,3.353C61.044,273.264,68.588,274.1,71.942,274.1Z" transform="translate(17.164 127.445)" fill="#344a5e"/>
        <path id="Path_8221" data-name="Path 8221" d="M52.09,256.254s-.838,5.868-1.676,10.059a17.879,17.879,0,0,0,.838,10.059c1.676,1.676,8.383.838,12.573.838s6.706.839,9.22,0c2.515,0,1.676-7.544,0-11.735s-4.191-7.544-4.191-11.735v-4.191Z" transform="translate(16.898 120.985)" fill="#415a6b"/>
        <path id="Path_8222" data-name="Path 8222" d="M114.416,270.043l2.515,1.676s.839.838,0,2.515a8.465,8.465,0,0,0-4.191,1.676c-3.353.838-7.544.838-12.573.838-5.029-.838-6.706-3.353-8.383-5.029a12.271,12.271,0,0,0-4.191-2.515v1.676H77.535s-1.676-5.029,1.676-8.383l3.353-3.353C83.4,259.145,114.416,270.043,114.416,270.043Z" transform="translate(30.012 125.637)" fill="#344a5e"/>
        <path id="Path_8223" data-name="Path 8223" d="M98.456,251.985s4.191,3.353,5.868,6.706,1.676,7.544,5.029,9.22,7.544,5.029,7.544,6.706a25.356,25.356,0,0,0-8.383,1.676c-4.191,1.676-10.9,1.676-13.412-.838-2.515-1.676-4.191-5.029-8.383-5.868-4.191-1.676-8.383,0-9.22-1.676-.839-2.515,0-11.735,2.515-15.088C83.368,250.309,98.456,251.985,98.456,251.985Z" transform="translate(30.046 121.9)" fill="#415a6b"/>
        <path id="Path_8224" data-name="Path 8224" d="M94.864,60.651l6.706-5.868s2.515,10.059,2.515,17.6-1.676,10.9,0,13.412,7.544,9.22,7.544,13.412.838,5.029,3.353,4.191,11.735-2.515,14.25-3.353c1.676-.838,19.279-5.868,19.279-5.868s-.839,17.6,8.383,20.118c0,0-26.823,9.22-31.852,10.059s-15.088,4.191-17.6,4.191-7.544-.838-10.059-4.191-5.868-9.22-5.868-11.735C92.349,110.107,94.864,60.651,94.864,60.651Z" transform="translate(36.991 26.56)" fill="#213c62"/>
        <path id="Path_8225" data-name="Path 8225" d="M115.647,151.385s-20.956,12.573-43.588,10.059-25.147-2.515-25.147-3.353S58.647,79.3,62.839,48.283H67.03c2.515,6.706,9.22,10.059,15.927,10.059a16.39,16.39,0,0,0,15.927-10.9h1.676L110.618,114.5Z" transform="translate(15.369 23.002)" fill="#95b7a4"/>
        <path id="Path_8226" data-name="Path 8226" d="M45.085,123.315c29.338,6.706,55.323,6.706,72.926-5.868,0,0,9.22,26.823,9.22,31.015s-1.676,3.353-1.676,10.059,0,51.97-.838,60.352-2.515,19.279-1.676,22.632,3.353,14.25,3.353,24.308-5.029,41.911-5.868,45.264.838,9.22.838,9.22-8.383-2.515-12.573,1.676c-4.191,3.353-10.9,4.191-13.412,0,0,0,0-18.441,1.676-26.823s0-36.044,0-42.75a189.657,189.657,0,0,0-.838-20.956c-.838-8.383-3.353-27.662-4.191-30.176S87,184.5,87,184.5a123.52,123.52,0,0,1-3.353,19.279c-2.515,9.22-6.706,23.471-7.544,25.985-.838,3.353-3.353,24.308-3.353,31.852s2.515,18.441,3.353,25.147c.838,5.868.838,26.823.838,30.176v5.029s-2.515-3.353-8.383-3.353-10.9,5.029-10.9,5.029-6.706-7.544-6.706-11.735-3.353-9.22-4.191-17.6-.838-39.4,0-50.294-1.676-36.882-3.353-52.808C42.571,176.123,40.056,139.241,45.085,123.315Z" transform="translate(13.005 56.94)" fill="#213c62"/>
        <path id="Path_8227" data-name="Path 8227" d="M79.091,40.67s5.029,9.22,5.029,18.441c.839,9.22,3.353,46.1,5.029,57.838,1.676,12.573,6.706,42.75,6.706,51.132.838,8.383-.838,15.088,5.029,17.6s10.059,0,10.059,0-5.868-12.573-6.706-20.118c0-7.544-5.029-33.529-5.029-33.529s3.353-33.529,5.868-41.073c1.676-8.383,2.515-29.338,2.515-29.338S87.473,49.891,84.12,45.7,79.091,40.67,79.091,40.67Z" transform="translate(30.97 19.717)" fill="#213c62"/>
        <g id="Group_502" data-name="Group 502" transform="translate(15.211 71.286)">
          <path id="Path_8228" data-name="Path 8228" d="M51.385,127.641c-3.353.839-5.868,5.868-6.706,10.9S43,149.435,43,149.435s-13.412-14.25-17.6-18.441S17.018,118.42,15.342,114.23c-.838-3.353,2.515-13.412,5.029-17.6s10.9-22.632,15.088-31.852S43.842,48.01,43.842,48.01s4.191,10.9,5.029,20.117c.838,5.029,0,13.412,0,19.279a55.893,55.893,0,0,0-2.515,5.868c-.838,3.353-9.22,14.25-9.22,14.25a13.214,13.214,0,0,0,.838,3.353c.838,2.515,2.515,4.191,5.029,5.868.838.839,1.676,2.515,3.353,3.353A47.566,47.566,0,0,1,51.385,127.641Z" transform="translate(-15.211 -48.01)" fill="#213c62"/>
          <path id="Path_8229" data-name="Path 8229" d="M186.9,55.529l-49.455,47.779a2.371,2.371,0,1,0,3.353,3.353l47.779-48.618C190.252,56.367,187.737,53.852,186.9,55.529Z" transform="translate(43.745 -44.633)" fill="#213c62"/>
        </g>
        <path id="Path_8230" data-name="Path 8230" d="M142.285,93.035h.838c2.515-1.676,5.029-3.353,6.706-5.868,1.676-1.676,2.515-4.191,3.353-6.706a10.628,10.628,0,0,1-5.029-.839h-1.676c-.839,0-.839,0-.839.839v1.676c0,.838.839.838.839,1.676H144.8a2.924,2.924,0,0,0-1.676.838v2.515h-3.353a3.079,3.079,0,0,0-.838,2.515A6.542,6.542,0,0,0,142.285,93.035Z" transform="translate(59.982 38.602)" fill="#fff"/>
        <g id="Group_503" data-name="Group 503" transform="translate(38.811 0)">
          <path id="Path_8231" data-name="Path 8231" d="M61.619,33.808s.845-6.754,0-10.975,6.347-5.955,11.406-6.149,8.817-.335,11.35-3.712,10.171,2.262,10.171,8.172v11.82h.845c.845-1.688,3.377-9.287,2.533-13.509,0-5.91-5.91-20.263-21.108-19.419S57.4,13.545,56.554,21.144c-.845,4.22,2.533,9.286,5.066,12.664Z" transform="translate(-18.131 -0.244)" fill="#213c62"/>
          <path id="Path_8232" data-name="Path 8232" d="M77.208,36.718s-3.353,10.9-2.515,20.117.838,52.808.838,57.838-5.868,47.779-8.383,54.485c-2.515,5.868-8.383,20.118-17.6,20.118s-18.441-5.868-18.441-5.868S42,116.35,40.325,102.1c0,0,2.515-17.6.838-26.823s-5.029-20.117-5.029-20.117,19.279-7.544,25.985-8.383S71.341,39.233,77.208,36.718Z" transform="translate(-31.105 17.801)" fill="#213c62"/>
        </g>
      </g>
    </g>
  </g>
</svg>
