<svg id="Group_428" data-name="Group 428" xmlns="http://www.w3.org/2000/svg" width="43.894" height="37.723" viewBox="0 0 43.894 37.723">
  <path id="Path_2479" data-name="Path 2479" d="M1257.551,5939.59h-10.337a.738.738,0,0,1-.738-.738v-16.243a.737.737,0,0,1,.738-.738h10.337a.738.738,0,0,1,.738.738v16.243A.739.739,0,0,1,1257.551,5939.59Zm-9.6-1.477h8.86v-14.767h-8.86Z" transform="translate(-1246.476 -5904.15)" fill="#95b7a4"/>
  <path id="Path_2480" data-name="Path 2480" d="M1275.192,5942.918c-3.126,0-7.028-1.843-10.164-3.323-1.971-.93-3.833-1.81-4.66-1.81a.739.739,0,0,1,0-1.477c1.158,0,2.982.862,5.292,1.952,3,1.418,6.737,3.182,9.532,3.182,5.216,0,17.143-6.665,17.143-8.952,0-1.7-.755-2.492-2.376-2.492-.544,0-1.788,1.017-2.786,1.834-1.99,1.628-4.24,3.474-6.358,2.868a.74.74,0,0,1-.523-.842,1.689,1.689,0,0,0-.291-1.486c-1.036-1.2-4.242-1.076-5.967-1.016-.378.014-.709.026-.975.026a5.33,5.33,0,0,1-2.767-1.171,16.031,16.031,0,0,0-9.587-2.866.738.738,0,0,1-.728-.749.724.724,0,0,1,.748-.728,17.547,17.547,0,0,1,10.365,3.1,4.506,4.506,0,0,0,1.969.937c.251,0,.565-.011.921-.024,2.245-.084,5.637-.208,7.136,1.523a2.883,2.883,0,0,1,.7,1.928c1.319-.106,3.018-1.5,4.421-2.644,1.48-1.211,2.65-2.167,3.721-2.167,2.448,0,3.853,1.446,3.853,3.968C1293.812,5936.076,1280.6,5942.918,1275.192,5942.918Z" transform="translate(-1249.918 -5905.195)" fill="#95b7a4"/>
  <path id="Path_2481" data-name="Path 2481" d="M1284.027,5937.347h-11.813a.738.738,0,1,1,0-1.477h11.813a.738.738,0,1,1,0,1.477Z" transform="translate(-1253.018 -5907.813)" fill="#95b7a4"/>
  <path id="Path_2482" data-name="Path 2482" d="M1290.228,5903.777h-5.168a2.588,2.588,0,0,1-2.584-2.584v-.738a2.587,2.587,0,0,1,2.584-2.584h5.168a2.587,2.587,0,0,1,2.584,2.584v.738A2.588,2.588,0,0,1,1290.228,5903.777Zm-5.168-4.43a1.108,1.108,0,0,0-1.107,1.107v.738a1.109,1.109,0,0,0,1.107,1.108h5.168a1.109,1.109,0,0,0,1.108-1.108v-.738a1.109,1.109,0,0,0-1.108-1.107Z" transform="translate(-1255.896 -5897.87)" fill="#95b7a4"/>
  <path id="Path_2483" data-name="Path 2483" d="M1278.228,5913.776h-5.168a2.587,2.587,0,0,1-2.584-2.584v-.739a2.587,2.587,0,0,1,2.584-2.584h5.168a2.587,2.587,0,0,1,2.584,2.584v.739A2.588,2.588,0,0,1,1278.228,5913.776Zm-5.168-4.43a1.108,1.108,0,0,0-1.108,1.107v.739a1.108,1.108,0,0,0,1.108,1.107h5.168a1.108,1.108,0,0,0,1.107-1.107v-.739a1.108,1.108,0,0,0-1.107-1.107Z" transform="translate(-1252.756 -5900.486)" fill="#95b7a4"/>
  <path id="Path_2484" data-name="Path 2484" d="M1290.228,5923.776h-5.168a2.588,2.588,0,0,1-2.584-2.584v-.738a2.587,2.587,0,0,1,2.584-2.584h5.168a2.587,2.587,0,0,1,2.584,2.584v.738A2.588,2.588,0,0,1,1290.228,5923.776Zm-5.168-4.43a1.109,1.109,0,0,0-1.107,1.108v.738a1.109,1.109,0,0,0,1.107,1.108h5.168a1.109,1.109,0,0,0,1.108-1.108v-.738a1.109,1.109,0,0,0-1.108-1.108Z" transform="translate(-1255.896 -5903.103)" fill="#95b7a4"/>
</svg>
