<svg xmlns="http://www.w3.org/2000/svg" width="11.992" height="11.992" viewBox="0 0 11.992 11.992">
  <path id="Path_8322" data-name="Path 8322" d="M25.055,1.086a.445.445,0,0,1,.328.187.594.594,0,0,1,.117.352,10.7,10.7,0,0,1-1.477,5.484,10.927,10.927,0,0,1-3.914,3.914A10.7,10.7,0,0,1,14.625,12.5a.594.594,0,0,1-.352-.117.445.445,0,0,1-.187-.328l-.562-2.437a.529.529,0,0,1,.047-.375.5.5,0,0,1,.281-.258l2.625-1.125a.6.6,0,0,1,.352-.035.471.471,0,0,1,.3.2L18.281,9.43A8.238,8.238,0,0,0,20.73,7.719a8.611,8.611,0,0,0,1.7-2.437L21.023,4.109a.561.561,0,0,1-.187-.293.584.584,0,0,1,.023-.363L21.984.828A.517.517,0,0,1,22.242.57a.529.529,0,0,1,.375-.047Z" transform="translate(-13.508 -0.508)" fill="#95b7a4"/>
</svg>
