<svg xmlns="http://www.w3.org/2000/svg" width="14" height="13.125" viewBox="0 0 14 13.125">
  <path id="Path_226" data-name="Path 226" d="M4.942-11.456A4.991,4.991,0,0,1,7-7.437,5.019,5.019,0,0,1,4.95-3.411,7.613,7.613,0,0,1,0-1.75a9.073,9.073,0,0,1-1.183-.081A5.367,5.367,0,0,1-4.958,0a.281.281,0,0,1-.275-.178A.294.294,0,0,1-5.169-.5a3.547,3.547,0,0,0,.251-.292,4.759,4.759,0,0,0,.438-.794,4.087,4.087,0,0,0,.365-1.248,6.177,6.177,0,0,1-2.115-2A4.749,4.749,0,0,1-7-7.437a5.019,5.019,0,0,1,2.05-4.027A7.613,7.613,0,0,1,0-13.125,7.557,7.557,0,0,1,4.942-11.456Z" transform="translate(7 13.125)" fill="#95b7a4"/>
</svg>
