<svg id="Group_445" data-name="Group 445" xmlns="http://www.w3.org/2000/svg" width="42.085" height="42.084" viewBox="0 0 42.085 42.084">
  <path id="Path_2569" data-name="Path 2569" d="M672.581,5794.6h-.041a.74.74,0,0,1-.55-.295l-10.084-13.447a.736.736,0,0,1,.232-1.087A20.971,20.971,0,0,1,684.5,5781a.737.737,0,0,1,.112,1.107l-11.492,12.254A.737.737,0,0,1,672.581,5794.6Zm-8.974-13.936,9.037,12.051,10.3-10.982a19.494,19.494,0,0,0-19.336-1.069Z" transform="translate(-651.304 -5777.12)" fill="#345079"/>
  <g id="Group_444" data-name="Group 444" transform="translate(0 5.876)">
    <path id="Path_2570" data-name="Path 2570" d="M688.491,5818.318a.742.742,0,0,1-.661-.409l-8.13-16.264a.736.736,0,0,1,.122-.835l12.433-13.264a.678.678,0,0,1,.566-.232.732.732,0,0,1,.546.272,21.027,21.027,0,0,1-4.459,30.6A.724.724,0,0,1,688.491,5818.318Zm-7.24-16.872,7.513,15.029a19.551,19.551,0,0,0,3.977-27.287Z" transform="translate(-655.979 -5785.663)" fill="#345079"/>
    <path id="Path_2571" data-name="Path 2571" d="M668.641,5821.287a21.038,21.038,0,0,1-14.8-35.995.738.738,0,0,1,1.11.082l11.915,15.888,8.948,17.869a.74.74,0,0,1-.424,1.03A20.992,20.992,0,0,1,668.641,5821.287Zm-14.352-34.335a19.543,19.543,0,0,0,19.817,32.065l-8.491-16.982Z" transform="translate(-647.599 -5785.079)" fill="#345079"/>
  </g>
</svg>
