<svg xmlns="http://www.w3.org/2000/svg" width="83.761" height="82.443" viewBox="0 0 83.761 82.443">
  <g id="Group_578" data-name="Group 578" transform="translate(-624.005 -10872.474)">
    <line id="Line_16" data-name="Line 16" x2="29.665" transform="translate(650.181 10884.117)" fill="none" stroke="#345079" stroke-linecap="round" stroke-linejoin="round" stroke-width="2"/>
    <line id="Line_17" data-name="Line 17" x1="15.439" y2="28.972" transform="translate(685.378 10909.376)" fill="none" stroke="#345079" stroke-linecap="round" stroke-linejoin="round" stroke-width="2"/>
    <line id="Line_18" data-name="Line 18" x2="14.671" y2="27.639" transform="translate(629.268 10909.376)" fill="none" stroke="#345079" stroke-linecap="round" stroke-linejoin="round" stroke-width="2"/>
    <path id="Path_8267" data-name="Path 8267" d="M667.415,10895.345v6.981s3.49,1.563,3.49,3.49v3.492c0,2.893-2.412,7.088-5.307,7.088,0,6.464-4.78,13.021-11.243,13.021h-.522c-6.462,0-12.144-6.558-12.144-13.021-2.893,0-5.685-4.2-5.685-7.088v-3.492a3.614,3.614,0,0,1,3.49-3.49v-5.933c0-4.629,2.349-8.554,6.98-8.554C655.2,10884.874,667.415,10877.894,667.415,10895.345Z" transform="translate(8.94 7.05)" fill="none" stroke="#345079" stroke-linecap="round" stroke-linejoin="round" stroke-width="2"/>
    <path id="Path_8268" data-name="Path 8268" d="M671.4,10909.738a17.453,17.453,0,0,1,17.616,17.907h-59.5a17.258,17.258,0,0,1,17.614-17.678" transform="translate(4.109 26.271)" fill="none" stroke="#345079" stroke-linecap="round" stroke-linejoin="round" stroke-width="2"/>
    <g id="Path_8269" data-name="Path 8269" transform="translate(4.109 0.001)" fill="none" stroke-miterlimit="10">
      <path d="M643.481,10881.453c0,3.855-3.125,13.961-6.98,13.961s-6.98-10.105-6.98-13.961a6.98,6.98,0,1,1,13.96,0Z" stroke="none"/>
      <path d="M 636.5010375976562 10874.47265625 C 632.6463012695312 10874.47265625 629.5209350585938 10877.599609375 629.5209350585938 10881.453125 C 629.5209350585938 10885.30859375 632.6463012695312 10895.4140625 636.5010375976562 10895.4140625 C 640.3557739257812 10895.4140625 643.4811401367188 10885.30859375 643.4811401367188 10881.453125 C 643.4811401367188 10877.599609375 640.3557739257812 10874.47265625 636.5010375976562 10874.47265625 M 636.5010375976562 10872.47265625 C 641.4526977539062 10872.47265625 645.4811401367188 10876.5009765625 645.4811401367188 10881.453125 C 645.4811401367188 10883.78515625 644.5762329101562 10887.568359375 643.2806396484375 10890.6533203125 C 642.516357421875 10892.4736328125 641.6676025390625 10893.953125 640.7578125 10895.05078125 C 639.4583129882812 10896.619140625 638.026123046875 10897.4140625 636.5010375976562 10897.4140625 C 634.9759521484375 10897.4140625 633.5437622070312 10896.619140625 632.2442626953125 10895.05078125 C 631.33447265625 10893.953125 630.4857177734375 10892.4736328125 629.721435546875 10890.6533203125 C 628.4258422851562 10887.568359375 627.5209350585938 10883.78515625 627.5209350585938 10881.453125 C 627.5209350585938 10876.5009765625 631.5493774414062 10872.47265625 636.5010375976562 10872.47265625 Z" stroke="none" fill="#345079"/>
    </g>
    <path id="Path_8270" data-name="Path 8270" d="M624.963,10896.726c0-4.818,3.131-8.726,7.954-8.726h4.335" transform="translate(0.713 10.077)" fill="none" stroke="#345079" stroke-linecap="round" stroke-linejoin="round" stroke-width="2"/>
    <line id="Line_19" data-name="Line 19" x2="17.45" transform="translate(624.005 10908.547)" fill="none" stroke="#345079" stroke-linejoin="round" stroke-width="2"/>
    <g id="Path_8271" data-name="Path 8271" transform="translate(24.971 0.001)" fill="none" stroke-miterlimit="10">
      <path d="M657.522,10881.453c0,3.855,3.127,13.961,6.982,13.961s6.98-10.105,6.98-13.961a6.981,6.981,0,0,0-13.962,0Z" stroke="none"/>
      <path d="M 664.5038452148438 10874.47265625 C 660.6491088867188 10874.47265625 657.52197265625 10877.599609375 657.52197265625 10881.453125 C 657.52197265625 10885.30859375 660.6491088867188 10895.4140625 664.5038452148438 10895.4140625 C 668.3585815429688 10895.4140625 671.48388671875 10885.30859375 671.48388671875 10881.453125 C 671.48388671875 10877.599609375 668.3585815429688 10874.47265625 664.5038452148438 10874.47265625 M 664.5038452148438 10872.47265625 C 669.4554443359375 10872.47265625 673.48388671875 10876.5009765625 673.48388671875 10881.453125 C 673.48388671875 10883.78515625 672.5790405273438 10887.568359375 671.283447265625 10890.6533203125 C 670.5191650390625 10892.4736328125 669.67041015625 10893.953125 668.7606201171875 10895.05078125 C 667.4611206054688 10896.619140625 666.0289306640625 10897.4140625 664.5038452148438 10897.4140625 C 662.9788208007812 10897.4140625 661.5465698242188 10896.619140625 660.2469482421875 10895.05078125 C 659.3369750976562 10893.953125 658.4879760742188 10892.4736328125 657.7234497070312 10890.654296875 C 656.42724609375 10887.568359375 655.52197265625 10883.7841796875 655.52197265625 10881.453125 C 655.52197265625 10876.5009765625 659.5512084960938 10872.47265625 664.5038452148438 10872.47265625 Z" stroke="none" fill="#345079"/>
    </g>
    <path id="Path_8272" data-name="Path 8272" d="M675.91,10896.726c0-4.818-4.432-8.726-9.256-8.726h-2.649" transform="translate(29.801 10.077)" fill="none" stroke="#345079" stroke-linecap="round" stroke-linejoin="round" stroke-width="2"/>
    <line id="Line_20" data-name="Line 20" x1="17.45" transform="translate(690.316 10908.547)" fill="none" stroke="#345079" stroke-linejoin="round" stroke-width="2"/>
  </g>
</svg>
