<svg xmlns="http://www.w3.org/2000/svg" xmlns:xlink="http://www.w3.org/1999/xlink" width="223.023" height="222.664" viewBox="0 0 223.023 222.664">
  <defs>
    <filter id="Path_8463" x="0" y="0" width="196.109" height="186.046" filterUnits="userSpaceOnUse">
      <feOffset dy="6" input="SourceAlpha"/>
      <feGaussianBlur stdDeviation="15" result="blur"/>
      <feFlood flood-opacity="0.2"/>
      <feComposite operator="in" in2="blur"/>
      <feComposite in="SourceGraphic"/>
    </filter>
    <filter id="Path_8463-2" x="99.886" y="114.048" width="116.852" height="108.616" filterUnits="userSpaceOnUse">
      <feOffset dy="4" input="SourceAlpha"/>
      <feGaussianBlur stdDeviation="5" result="blur-2"/>
      <feFlood flood-opacity="0.078"/>
      <feComposite operator="in" in2="blur-2"/>
      <feComposite in="SourceGraphic"/>
    </filter>
  </defs>
  <g id="Group_521" data-name="Group 521" transform="translate(37.489 24.562)">
    <path id="Path_8488" data-name="Path 8488" d="M93,0A93,93,0,1,1,0,93,93,93,0,0,1,93,0Z" transform="translate(-0.466 0.486)" fill="#f7f7f8"/>
    <g id="Group_702" data-name="Group 702" transform="translate(7.511 14.438)">
      <g transform="matrix(1, 0, 0, 1, -45, -39)" filter="url(#Path_8463)">
        <path id="Path_8463-3" data-name="Path 8463" d="M4718.36,5248.167H4612.25v73.179h20.642l-8.258,22.868,34.621-22.868h59.1Z" transform="translate(-4567.25 -5209.17)" fill="#496c9f"/>
      </g>
    </g>
    <g id="Group_703" data-name="Group 703" transform="translate(77.396 100.486)">
      <g transform="matrix(1, 0, 0, 1, -114.89, -125.05)" filter="url(#Path_8463-2)">
        <path id="Path_8463-4" data-name="Path 8463" d="M4612.25,5248.167H4699.1v59.9h-16.9l6.759,18.718-28.338-18.718H4612.25Z" transform="translate(-4497.36 -5123.12)" fill="#95b7a4"/>
      </g>
    </g>
    <path id="Path_8464" data-name="Path 8464" d="M416.481,364.937a2.445,2.445,0,0,1-2.442-2.441v-31.51a2.445,2.445,0,0,1,2.442-2.443h.275a2.445,2.445,0,0,1,2.443,2.443v11.46h3.5a2.443,2.443,0,0,1,0,4.885h-3.5v15.164a2.445,2.445,0,0,1-2.443,2.443Z" transform="translate(-348.289 -293.859)" fill="#fff"/>
    <path id="Path_8465" data-name="Path 8465" d="M335.052,364.252a2.45,2.45,0,0,1-2.022-1.063l-.209-.3a2.44,2.44,0,0,1,.842-3.521,28.913,28.913,0,0,0,3.763-2.444,23.512,23.512,0,0,0,4.092-4,21.437,21.437,0,0,0,2.92-4.886,18.654,18.654,0,0,0,.975-2.927l.261-1.067H335.165a2.443,2.443,0,0,1,0-4.885h13.471a2.446,2.446,0,0,1,2.437,2.63,25.606,25.606,0,0,1-4.522,12.869,29.148,29.148,0,0,1-4.837,5.357,37.925,37.925,0,0,1-5.426,3.9A2.41,2.41,0,0,1,335.052,364.252Z" transform="translate(-290.116 -301.416)" fill="#fff"/>
    <path id="Path_8470" data-name="Path 8470" d="M91.018,88.729a1.987,1.987,0,0,1-1.853-1.288L86.876,81.3h-8.9l-2.228,6.128a1.983,1.983,0,0,1-1.858,1.3h-.9a1.977,1.977,0,0,1-1.849-2.677L80.031,62.6a1.986,1.986,0,0,1,1.848-1.276h1.2a1.988,1.988,0,0,1,1.85,1.279l8.846,23.446a1.977,1.977,0,0,1-1.85,2.675Zm-9.251-17.95c-.586,1.656-1.227,3.468-1.791,5.049l-.333.934h5.578l-2.8-7.836Z" transform="translate(38.08 53.756)" fill="#fff"/>
  </g>
</svg>
