<svg xmlns="http://www.w3.org/2000/svg" width="99.127" height="56.67" viewBox="0 0 99.127 56.67">
  <g id="Group_594" data-name="Group 594" transform="translate(-796.004 -5894.901)">
    <path id="Path_8298" data-name="Path 8298" d="M806.918,5926.629c1.525,1.29,3.528,2.973,5.743,4.833,8.024,6.716,18.916,15.722,20.551,16.793a9.2,9.2,0,0,0,5.664,1.409,3.968,3.968,0,0,0,3.505-2.64c3.12,2.849,9.171,1.711,9.548-2.381,2.554,2.381,8.792.19,8.317-4.186,3.025,2.09,7.845-1.862,5.582-6.573-2.838-5.9-17.2-19.131-24.766-24.175-3.688,1.333-2.915,1.144-5.714,1.427-2.041,3.047-5.442,7.9-10.645,6.187s-1.415-10.85,2.269-14.467,11.535-8.09,20.043-4.281a120.627,120.627,0,0,0,13.706,5.328" transform="translate(6.851 0.844)" fill="none" stroke="#bcad96" stroke-linecap="round" stroke-linejoin="round" stroke-width="2"/>
    <path id="Path_8299" data-name="Path 8299" d="M828.788,5898.9c-4.578-.5-14.974-.784-18.284-.687" transform="translate(9.329 1.585)" fill="none" stroke="#bcad96" stroke-linecap="round" stroke-linejoin="round" stroke-width="2"/>
    <line id="Line_22" data-name="Line 22" y1="3.141" x2="4.138" transform="translate(873.261 5930.733)" fill="none" stroke="#bcad96" stroke-linecap="round" stroke-linejoin="round" stroke-width="2"/>
    <path id="Path_8300" data-name="Path 8300" d="M844.248,5928.04c-2.173-1.717-14.18-12.947-14.18-12.947" transform="translate(22.85 13.263)" fill="none" stroke="#bcad96" stroke-linecap="round" stroke-linejoin="round" stroke-width="2"/>
    <path id="Path_8301" data-name="Path 8301" d="M838.4,5929.581c-2.741-2.19-10.781-9.425-11.917-10.66" transform="translate(20.375 15.908)" fill="none" stroke="#bcad96" stroke-linecap="round" stroke-linejoin="round" stroke-width="2"/>
    <path id="Path_8302" data-name="Path 8302" d="M831.521,5930.163a120.591,120.591,0,0,1-8.888-8.639" transform="translate(17.711 17.706)" fill="none" stroke="#bcad96" stroke-linecap="round" stroke-linejoin="round" stroke-width="2"/>
    <path id="Path_8303" data-name="Path 8303" d="M797,5933.875c3.971.954,14.132,0,14.132,0s7.745-23.2,8.7-34.076c-5.246-1.831-18.576-3.9-18.576-3.9S797.146,5918.516,797,5933.875Z" transform="translate(0 0)" fill="none" stroke="#bcad96" stroke-linecap="round" stroke-linejoin="round" stroke-width="2"/>
    <path id="Path_8304" data-name="Path 8304" d="M839.234,5902.547c2.838,4.566,8.888,21.864,10.4,27.34,3.594,1.478,15.314.66,15.314.66s-2.17-23.9-7.087-30.757C849.21,5898.071,839.234,5902.547,839.234,5902.547Z" transform="translate(29.184 2.416)" fill="none" stroke="#bcad96" stroke-linecap="round" stroke-linejoin="round" stroke-width="2"/>
  </g>
</svg>
