<svg xmlns="http://www.w3.org/2000/svg" width="124.765" height="62.088" viewBox="0 0 124.765 62.088">
  <g id="Group_476" data-name="Group 476" transform="translate(-371.755 -377.926)">
    <path id="Path_8160" data-name="Path 8160" d="M467.861,392.235h3.4v1.042h-3.4Zm1.08,3.011h7.415V394.2h-7.415Zm5.107,2h6.175v-1.041h-6.175Zm9.389.944H468.745v1.042h14.692Zm2.735,1.986H471.741v1.041h14.431ZM473.951,403.2h14.7v-1.042h-14.7Zm.294,1.985h16.6v-1.042h-16.6Zm-1.276,1.985h5.795v-1.041h-5.795Zm.835,1.986h4.223v-1.042H473.8Zm19.022-3.027h-9.495v1.041h9.495Zm1.776,1.985H488v1.042H494.6Zm1.635,2.012h-3.085v1.041h3.085Zm1.438,1.964H494.38v1.041h3.294Zm-3.246,3.023h4.6v-1.042h-4.6Z" transform="translate(-19.483 -2.901)" fill="rgba(255,255,255,0.55)"/>
    <g id="Group_475" data-name="Group 475" transform="translate(453.927 409.193)">
      <rect id="Rectangle_1210" data-name="Rectangle 1210" width="7.659" height="1.042" transform="translate(4.908)" fill="rgba(255,255,255,0.55)"/>
      <rect id="Rectangle_1211" data-name="Rectangle 1211" width="11.928" height="1.042" transform="translate(3.438 1.982)" fill="rgba(255,255,255,0.55)"/>
      <rect id="Rectangle_1212" data-name="Rectangle 1212" width="24.489" height="1.042" transform="translate(2.357 3.967)" fill="rgba(255,255,255,0.55)"/>
      <rect id="Rectangle_1213" data-name="Rectangle 1213" width="26.672" height="1.042" transform="translate(1.326 5.953)" fill="rgba(255,255,255,0.55)"/>
      <rect id="Rectangle_1214" data-name="Rectangle 1214" width="28.319" height="1.042" transform="translate(0.638 7.938)" fill="rgba(255,255,255,0.55)"/>
      <rect id="Rectangle_1215" data-name="Rectangle 1215" width="28.687" height="1.042" transform="translate(1.129 9.924)" fill="rgba(255,255,255,0.55)"/>
      <rect id="Rectangle_1216" data-name="Rectangle 1216" width="29.083" height="1.042" transform="translate(1.571 11.909)" fill="rgba(255,255,255,0.55)"/>
      <rect id="Rectangle_1217" data-name="Rectangle 1217" width="29.969" height="1.042" transform="translate(1.365 13.895)" fill="rgba(255,255,255,0.55)"/>
      <rect id="Rectangle_1218" data-name="Rectangle 1218" width="31.929" height="1.042" transform="translate(0 15.88)" fill="rgba(255,255,255,0.55)"/>
      <rect id="Rectangle_1219" data-name="Rectangle 1219" width="31.765" height="1.042" transform="translate(0.687 17.866)" fill="rgba(255,255,255,0.55)"/>
      <rect id="Rectangle_1220" data-name="Rectangle 1220" width="30.095" height="1.042" transform="translate(2.799 19.851)" fill="rgba(255,255,255,0.55)"/>
      <rect id="Rectangle_1221" data-name="Rectangle 1221" width="28.692" height="1.042" transform="translate(4.567 21.837)" fill="rgba(255,255,255,0.55)"/>
      <rect id="Rectangle_1222" data-name="Rectangle 1222" width="27.653" height="1.042" transform="translate(5.893 23.822)" fill="rgba(255,255,255,0.55)"/>
      <rect id="Rectangle_1223" data-name="Rectangle 1223" width="26.393" height="1.042" transform="translate(7.366 25.808)" fill="rgba(255,255,255,0.55)"/>
      <rect id="Rectangle_1224" data-name="Rectangle 1224" width="13.126" height="1.042" transform="translate(20.773 27.793)" fill="rgba(255,255,255,0.55)"/>
      <rect id="Rectangle_1225" data-name="Rectangle 1225" width="14.713" height="1.042" transform="translate(19.25 29.779)" fill="rgba(255,255,255,0.55)"/>
    </g>
    <path id="Path_8161" data-name="Path 8161" d="M422.838,445.574h-4.616v-1.041h4.616Zm7.474.944H417.976v1.041h12.335Zm4.8,1.985H417.387v1.042h17.728Zm1.473,1.986h-19.84v1.041h19.84Zm-.1,1.985H416.552v1.041H436.49Z" transform="translate(-9.081 -13.503)" fill="rgba(255,255,255,0.55)"/>
    <path id="Path_8162" data-name="Path 8162" d="M396.57,411.586h18.062v1.041H396.57Zm1.211-.944h18.907V409.6H397.781Zm1.539-1.985h20.953v-1.042H399.319Zm1.539-1.986h20.4v-1.041h-20.4Zm1.309-1.985h23.556v-1.042H402.167Zm1.7-1.985h20.577v-1.042H403.869Zm2.456-1.986h11.688v-1.041H406.325Zm14.635,0h9.085v-1.041H420.96Zm.884-1.985h7.366v-1.042h-7.366Zm2.062-3.027v1.041h2.308V395.7Zm-14.81,3.027h8.426v-1.042H409.1Zm3.27-1.986h5.156V395.7h-5.156Zm3.848-1.985h6.66v-1.041h-6.66Zm4.962-1.985h7.149V391.73h-7.149Zm7.457-1.986H439.08v-1.041H428.634Zm4.226,1.984H437.8v-1.041h-4.945Zm1.163,1.994h2.21v-1.041h-2.21Zm-38.354,19.849H413.79v-1.042H395.669Zm17.434.944H395.129V416.6H413.1Zm-.2,3.026v-1.041h-2.6v1.041Zm-17.974,0h11v-1.041h-11Zm.246,1.986h1.179v-1.042h-1.179Zm8.25-1.042h-5.549v1.042h5.549Zm-1.975,1.986h-3.476v1.041h3.476Zm-.677,3.026V423.5h-2.652v1.041Zm-.049.944h-3.212v1.042h3.212Zm5.156,1.986h-7.268v1.041h7.268Zm-1.669-.944h2.111v-1.042h-2.111Zm2.75,2.929h-5.6V430.5h5.6Zm1.13,1.985h-4.371v1.042h4.371Zm.54,1.986h-2.75v1.041h2.75Zm-1.178,3.026h6.138v-1.041h-6.138Z" transform="translate(-4.699 -2.396)" fill="rgba(255,255,255,0.55)"/>
    <path id="Path_8163" data-name="Path 8163" d="M397.335,394.123l1.964,1.964a59.726,59.726,0,0,1,80.186.137l1.964-1.964A62.5,62.5,0,0,0,397.335,394.123Z" transform="translate(-5.186)" fill="rgba(255,255,255,0.55)"/>
    <path id="Path_8164" data-name="Path 8164" d="M374.528,445.13a59.464,59.464,0,0,1,15.652-40l-1.964-1.964a62.227,62.227,0,0,0-16.461,41.968Z" transform="translate(0 -5.116)" fill="rgba(255,255,255,0.55)"/>
    <path id="Path_8165" data-name="Path 8165" d="M523.594,445.165a62.228,62.228,0,0,0-16.328-41.827L505.3,405.3a59.465,59.465,0,0,1,15.519,39.864Z" transform="translate(-27.073 -5.152)" fill="rgba(255,255,255,0.55)"/>
  </g>
</svg>
