<svg xmlns="http://www.w3.org/2000/svg" xmlns:xlink="http://www.w3.org/1999/xlink" viewBox="0 0 156.42 156.43"><defs><style>.cls-1{fill:url(#radial-gradient);}.cls-2{fill:url(#radial-gradient-2);}.cls-3{fill:url(#radial-gradient-3);}.cls-4{fill:url(#radial-gradient-4);}.cls-5{fill:url(#radial-gradient-5);}.cls-6{fill:url(#radial-gradient-6);}.cls-7{fill:url(#radial-gradient-7);}.cls-8{fill:url(#radial-gradient-8);}.cls-9{fill:url(#radial-gradient-9);}.cls-10{fill:url(#radial-gradient-10);}.cls-11{fill:url(#radial-gradient-11);}.cls-12{fill:url(#radial-gradient-12);}.cls-13{fill:url(#radial-gradient-13);}.cls-14{fill:url(#radial-gradient-14);}.cls-15{fill:url(#radial-gradient-15);}.cls-16{fill:url(#radial-gradient-16);}.cls-17{fill:url(#radial-gradient-17);}.cls-18{fill:url(#radial-gradient-18);}.cls-19{fill:url(#radial-gradient-19);}.cls-20{fill:url(#radial-gradient-20);}.cls-21{fill:url(#radial-gradient-21);}.cls-22{fill:url(#radial-gradient-22);}.cls-23{fill:url(#radial-gradient-23);}.cls-24{fill:url(#radial-gradient-24);}.cls-25{fill:url(#radial-gradient-25);}.cls-26{fill:url(#radial-gradient-26);}.cls-27{fill:url(#radial-gradient-27);}.cls-28{fill:url(#radial-gradient-28);}.cls-29{fill:url(#radial-gradient-29);}.cls-30{fill:url(#radial-gradient-30);}.cls-31{fill:url(#radial-gradient-31);}.cls-32{fill:url(#radial-gradient-32);}.cls-33{fill:url(#radial-gradient-33);}.cls-34{fill:url(#radial-gradient-34);}.cls-35{fill:url(#radial-gradient-35);}.cls-36{fill:url(#radial-gradient-36);}.cls-37{fill:url(#radial-gradient-37);}.cls-38{fill:url(#radial-gradient-38);}</style><radialGradient id="radial-gradient" cx="94.6" cy="37.76" r="27.91" gradientUnits="userSpaceOnUse"><stop offset="0" stop-color="#d4e5d7" stop-opacity="0.55"/><stop offset="1" stop-color="#95b7a4"/></radialGradient><radialGradient id="radial-gradient-2" cx="78.53" cy="51.68" r="58.32" gradientUnits="userSpaceOnUse"><stop offset="0" stop-color="#93a9be" stop-opacity="0.55"/><stop offset="1" stop-color="#345079"/></radialGradient><radialGradient id="radial-gradient-3" cx="78.53" cy="51.82" r="58.32" xlink:href="#radial-gradient-2"/><radialGradient id="radial-gradient-4" cx="76.96" cy="51.96" r="61.62" xlink:href="#radial-gradient-2"/><radialGradient id="radial-gradient-5" cx="77.35" cy="52.1" r="60.94" xlink:href="#radial-gradient-2"/><radialGradient id="radial-gradient-6" cx="78.63" cy="49.9" r="58.09" xlink:href="#radial-gradient-2"/><radialGradient id="radial-gradient-7" cx="78.39" cy="50.04" r="58.64" xlink:href="#radial-gradient-2"/><radialGradient id="radial-gradient-8" cx="78.16" cy="50.18" r="59.14" xlink:href="#radial-gradient-2"/><radialGradient id="radial-gradient-9" cx="78.23" cy="50.33" r="58.97" xlink:href="#radial-gradient-2"/><radialGradient id="radial-gradient-10" cx="78.29" cy="50.47" r="58.87" xlink:href="#radial-gradient-2"/><radialGradient id="radial-gradient-11" cx="78.18" cy="50.61" r="59.1" xlink:href="#radial-gradient-2"/><radialGradient id="radial-gradient-12" cx="78.17" cy="50.75" r="59.04" xlink:href="#radial-gradient-2"/><radialGradient id="radial-gradient-13" cx="78.04" cy="50.9" r="59.2" xlink:href="#radial-gradient-2"/><radialGradient id="radial-gradient-14" cx="78.12" cy="51.04" r="59.01" xlink:href="#radial-gradient-2"/><radialGradient id="radial-gradient-15" cx="77.93" cy="51.18" r="59.26" xlink:href="#radial-gradient-2"/><radialGradient id="radial-gradient-16" cx="77.51" cy="51.32" r="59.37" xlink:href="#radial-gradient-2"/><radialGradient id="radial-gradient-17" cx="77.93" cy="51.47" r="58.94" xlink:href="#radial-gradient-2"/><radialGradient id="radial-gradient-18" cx="77.73" cy="51.61" r="59.12" xlink:href="#radial-gradient-2"/><radialGradient id="radial-gradient-19" cx="78.53" cy="51.75" r="58.32" xlink:href="#radial-gradient-2"/><radialGradient id="radial-gradient-20" cx="78.57" cy="51.89" r="58.28" xlink:href="#radial-gradient-2"/><radialGradient id="radial-gradient-21" cx="78.27" cy="49.69" r="58.54" xlink:href="#radial-gradient-2"/><radialGradient id="radial-gradient-22" cx="77.07" cy="49.83" r="59.55" xlink:href="#radial-gradient-2"/><radialGradient id="radial-gradient-23" cx="76.71" cy="49.97" r="59.82" xlink:href="#radial-gradient-2"/><radialGradient id="radial-gradient-24" cx="76.42" cy="50.11" r="59.99" xlink:href="#radial-gradient-2"/><radialGradient id="radial-gradient-25" cx="75" cy="50.26" r="60.98" xlink:href="#radial-gradient-2"/><radialGradient id="radial-gradient-26" cx="72.04" cy="50.4" r="63" xlink:href="#radial-gradient-2"/><radialGradient id="radial-gradient-27" cx="69.86" cy="50.54" r="64.3" xlink:href="#radial-gradient-2"/><radialGradient id="radial-gradient-28" cx="64.17" cy="50.68" r="67.82" xlink:href="#radial-gradient-2"/><radialGradient id="radial-gradient-29" cx="62.85" cy="50.83" r="68.29" xlink:href="#radial-gradient-2"/><radialGradient id="radial-gradient-30" cx="61" cy="50.97" r="69.15" xlink:href="#radial-gradient-2"/><radialGradient id="radial-gradient-31" cx="61.02" cy="51.11" r="68.76" xlink:href="#radial-gradient-2"/><radialGradient id="radial-gradient-32" cx="43.76" cy="51.25" r="78.34" xlink:href="#radial-gradient-2"/><radialGradient id="radial-gradient-33" cx="43.93" cy="53.74" r="78.34" gradientTransform="translate(58.1) scale(0.56 1)" xlink:href="#radial-gradient-2"/><radialGradient id="radial-gradient-34" cx="78.53" cy="50.03" r="58.32" xlink:href="#radial-gradient-2"/><radialGradient id="radial-gradient-35" cx="79.29" cy="65.42" r="58.93" gradientUnits="userSpaceOnUse"><stop offset="0" stop-color="#ded7cb" stop-opacity="0.55"/><stop offset="1" stop-color="#bcad95"/></radialGradient><radialGradient id="radial-gradient-36" cx="79.6" cy="60.56" r="40.86" gradientUnits="userSpaceOnUse"><stop offset="0" stop-color="#d298a2" stop-opacity="0.55"/><stop offset="1" stop-color="#9e3e49"/></radialGradient><radialGradient id="radial-gradient-37" cx="79.14" cy="61.16" r="53.54" xlink:href="#radial-gradient"/><radialGradient id="radial-gradient-38" cx="76.44" cy="62.22" r="52.16" xlink:href="#radial-gradient-36"/></defs><g id="Layer_2" data-name="Layer 2"><g id="Layer_1-2" data-name="Layer 1"><path class="cls-1" d="M96.07,14.27h4.27v1.31H96.07Zm1.36,3.78h9.3V16.74h-9.3Zm6.41,2.51h7.74V19.25h-7.74Zm11.77,1.18H97.18v1.31h18.43ZM119,24.23h-18.1v1.31H119ZM103.71,28h18.44V26.72H103.71Zm.37,2.49H124.9V29.21H104.08ZM102.48,33h7.27V31.7h-7.27Zm1,2.49h5.29V34.19h-5.29Zm23.86-3.8H115.48V33h11.91Zm2.22,2.49h-8.28V35.5h8.28Zm2.06,2.53H127.8V38h3.87Zm1.8,2.46h-4.13v1.31h4.13ZM129.4,43h5.77v-1.3H129.4Z"/><rect class="cls-2" x="109.19" y="39.18" width="9.61" height="1.31"/><rect class="cls-3" x="107.35" y="41.67" width="14.96" height="1.31"/><rect class="cls-4" x="105.99" y="44.16" width="30.72" height="1.31"/><rect class="cls-5" x="104.7" y="46.65" width="33.45" height="1.31"/><rect class="cls-6" x="103.84" y="49.14" width="35.52" height="1.31"/><rect class="cls-7" x="104.45" y="51.63" width="35.98" height="1.31"/><rect class="cls-8" x="105.01" y="54.12" width="36.48" height="1.31"/><rect class="cls-9" x="104.75" y="56.61" width="37.59" height="1.31"/><rect class="cls-10" x="103.03" y="59.1" width="40.05" height="1.31"/><rect class="cls-11" x="103.9" y="61.59" width="39.84" height="1.31"/><rect class="cls-12" x="106.55" y="64.08" width="37.75" height="1.31"/><rect class="cls-13" x="108.76" y="66.57" width="35.99" height="1.31"/><rect class="cls-14" x="110.43" y="69.06" width="34.68" height="1.31"/><rect class="cls-15" x="112.27" y="71.55" width="33.1" height="1.31"/><rect class="cls-16" x="129.09" y="74.04" width="16.46" height="1.31"/><rect class="cls-17" x="127.18" y="76.53" width="18.45" height="1.31"/><rect class="cls-18" x="127.82" y="79.02" width="17.81" height="1.31"/><rect class="cls-19" x="129.34" y="81.51" width="16.2" height="1.31"/><rect class="cls-20" x="130.38" y="84" width="14.96" height="1.31"/><rect class="cls-21" x="130.26" y="86.49" width="14.8" height="1.31"/><rect class="cls-22" x="129.09" y="88.98" width="15.59" height="1.31"/><rect class="cls-23" x="128.23" y="91.47" width="15.96" height="1.31"/><rect class="cls-24" x="128.29" y="93.96" width="15.34" height="1.31"/><rect class="cls-25" x="128.72" y="96.45" width="14.24" height="1.31"/><rect class="cls-26" x="128.84" y="98.94" width="13.3" height="1.31"/><rect class="cls-27" x="128.84" y="101.44" width="12.37" height="1.31"/><rect class="cls-28" x="128.9" y="103.93" width="11.32" height="1.31"/><rect class="cls-29" x="128.35" y="106.42" width="10.77" height="1.31"/><rect class="cls-30" x="127.12" y="108.91" width="10.81" height="1.31"/><rect class="cls-31" x="125.76" y="111.4" width="10.72" height="1.31"/><rect class="cls-32" x="126.28" y="113.89" width="8.64" height="1.31"/><rect class="cls-33" x="128.35" y="116.38" width="4.8" height="1.31"/><path class="cls-34" d="M152.94,81.7a74.93,74.93,0,0,1-71,71.24v3.48A78.4,78.4,0,0,0,156.42,81.7Z"/><path class="cls-35" d="M52.65,67.88H46.86V66.57h5.79ZM62,69.06H46.55v1.31H62Zm6,2.49H45.81v1.31H68.05ZM69.9,74H45v1.31H69.9Zm-.13,2.49h-25v1.31h25ZM69,79H43.6v1.31H69Zm11.27,2.49H42.79v1.31H80.24ZM86.47,84H42.36v1.31H86.47ZM43,87.8H88.13V86.49H43ZM45,89v1.31H88.38V89Zm1.72,3.8H85.73V91.47H46.67ZM47,95.27H83.6V94H47Zm0,2.49H81.85V96.45H47ZM81.35,99h-32v1.3h32ZM52.4,102.74H81.6v-1.3H52.4ZM56,105.23H81.6v-1.3H56Zm.73,2.49H81.54v-1.3H56.71Zm19.9,1.19H56.28v1.3H76.61ZM55.42,112.7H75.93v-1.3H55.42Zm18.79,1.19H55.73v1.3H74.21Zm-1.85,2.49H56.71v1.3H72.36Zm-3.2,2.49H57.64v1.3H69.16Zm-.8,2.49h-10v1.3h10Zm-.87,2.49H59v1.3h8.5Zm-1.92,2.49H59.79v1.31h5.78Zm-.85,2.49H59.86v1.31h4.86Zm-.06,2.49H60.29v1.31h4.37Zm.19,2.49H61.27v1.31h3.58Zm.61,2.49H62.75v1.31h2.71Zm1.73,2.49h-2.1v1.31h2.1ZM75,153A74.89,74.89,0,0,1,3.49,81.7H0a78.38,78.38,0,0,0,75,74.73Z"/><path class="cls-36" d="M25.2,39.18H47.85v1.3H25.2ZM26.72,38H50.43v-1.3H26.72Zm1.93-2.49H54.93V34.19H28.65ZM30.58,33H56.16V31.7H30.58Zm1.64-2.49H61.77V29.21H32.22ZM34.36,28h25.8V26.72H34.36Zm3.08-2.49H52.1V24.23H37.44Zm18.35,0h11.4V24.23H55.79Zm1.11-2.49h9.24V21.74H56.9Zm2.59-3.8v1.31h2.89V19.25Zm-18.58,3.8H51.48V21.74H40.91ZM45,20.56h6.47V19.25H45Zm4.83-2.49h8.35V16.76H49.84Zm6.22-2.49h9V14.27h-9Zm9.36-2.49h13.1V11.78H65.42Zm5.3,2.49h6.2V14.27h-6.2Zm1.46,2.5H75V16.77H72.18ZM24.07,43H46.8v-1.3H24.07Zm21.87,1.19H23.39v1.3H45.94ZM45.69,48v-1.3H42.42V48ZM23.15,48H36.94v-1.3H23.15Zm.3,2.49h1.48v-1.3H23.45Zm10.35-1.3h-7v1.3h7Zm-2.48,2.49H27v1.3h4.36Zm-.84,3.79v-1.3H27.15v1.3Zm-.07,1.19h-4v1.3h4Zm6.47,2.49H27.77v1.3h9.11Zm-2.09-1.19h2.65v-1.3H34.79Zm3.45,3.68h-7V62.9h7Zm1.41,2.49H34.17v1.31h5.48Zm.68,2.49H36.88v1.31h3.45Zm-1.48,3.8h7.7V69.06h-7.7Z"/><path class="cls-37" d="M81.94,0V3.49a74.93,74.93,0,0,1,71,71.24h3.48A78.4,78.4,0,0,0,81.94,0Z"/><path class="cls-38" d="M0,74.73H3.48A74.91,74.91,0,0,1,75,3.48V0A78.39,78.39,0,0,0,0,74.73Z"/></g></g></svg>