<svg id="Group_491" data-name="Group 491" xmlns="http://www.w3.org/2000/svg" width="70" height="70.545" viewBox="0 0 70 70.545">
  <path id="Path_8145" data-name="Path 8145" d="M4818.794,5450.416a1.168,1.168,0,0,1-1.1-1.562l3.007-8.317h-7.036a1.165,1.165,0,0,1-1.166-1.167v-30.333a1.163,1.163,0,0,1,1.166-1.166h46.668a1.167,1.167,0,0,1,1.166,1.166v30.333a1.168,1.168,0,0,1-1.166,1.167h-26.227l-14.672,9.685A1.145,1.145,0,0,1,4818.794,5450.416Zm-3.961-12.212h7.529a1.166,1.166,0,0,1,1.1,1.563l-2.375,6.57,12.026-7.94a1.145,1.145,0,0,1,.644-.193h25.411v-28h-44.334Z" transform="translate(-4812.5 -5407.871)" fill="#9e3e49"/>
  <path id="Path_8146" data-name="Path 8146" d="M4873,5474.749a1.145,1.145,0,0,1-.642-.193l-14.671-9.685h-24.017a1.166,1.166,0,0,1-1.167-1.167V5436.87a1.167,1.167,0,1,1,2.333,0v25.667h23.2a1.157,1.157,0,0,1,.643.193l12.026,7.94-2.374-6.57a1.17,1.17,0,0,1,1.1-1.563h7.406V5432.2h-18.666a1.167,1.167,0,1,1,0-2.333H4878a1.166,1.166,0,0,1,1.167,1.167V5463.7a1.168,1.168,0,0,1-1.167,1.167h-6.909l3,8.317a1.168,1.168,0,0,1-1.1,1.561Z" transform="translate(-4809.167 -5404.204)" fill="#9e3e49"/>
  <path id="Path_8147" data-name="Path 8147" d="M4853.334,5418.2h-32.667a1.167,1.167,0,1,1,0-2.333h32.667a1.167,1.167,0,0,1,0,2.333Z" transform="translate(-4811.333 -5406.538)" fill="#9e3e49"/>
  <path id="Path_8148" data-name="Path 8148" d="M4853.334,5422.2h-32.667a1.167,1.167,0,0,1,0-2.334h32.667a1.167,1.167,0,0,1,0,2.334Z" transform="translate(-4811.333 -5405.87)" fill="#9e3e49"/>
  <path id="Path_8149" data-name="Path 8149" d="M4837,5426.2h-16.333a1.167,1.167,0,1,1,0-2.333H4837a1.167,1.167,0,1,1,0,2.333Z" transform="translate(-4811.333 -5405.203)" fill="#9e3e49"/>
  <path id="Path_8150" data-name="Path 8150" d="M4868.667,5444.2h-28a1.167,1.167,0,1,1,0-2.333h28a1.167,1.167,0,0,1,0,2.333Z" transform="translate(-4807.999 -5402.204)" fill="#9e3e49"/>
  <path id="Path_8151" data-name="Path 8151" d="M4868.667,5448.2h-28a1.167,1.167,0,0,1,0-2.334h28a1.167,1.167,0,0,1,0,2.334Z" transform="translate(-4807.999 -5401.537)" fill="#9e3e49"/>
  <path id="Path_8152" data-name="Path 8152" d="M4857,5452.2h-16.333a1.167,1.167,0,1,1,0-2.333H4857a1.167,1.167,0,1,1,0,2.333Z" transform="translate(-4807.999 -5400.87)" fill="#9e3e49"/>
</svg>
