<svg xmlns="http://www.w3.org/2000/svg" width="71.5" height="64.042" viewBox="0 0 71.5 64.042">
  <g id="Group_752" data-name="Group 752" transform="translate(-555.25 -5400.212)">
    <path id="Path_8504" data-name="Path 8504" d="M619.482,5405.869c0,2.57-8.334,4.651-18.616,4.651s-18.616-2.082-18.616-4.651,8.334-4.657,18.616-4.657S619.482,5403.3,619.482,5405.869Z" transform="translate(6.268)" fill="none" stroke="#95b7a4" stroke-miterlimit="10" stroke-width="2"/>
    <path id="Path_8505" data-name="Path 8505" d="M594.893,5435.366c2.007.742,3.18,1.639,3.18,2.6,0,2.571-8.336,4.651-18.616,4.651" transform="translate(5.594 8.234)" fill="none" stroke="#95b7a4" stroke-miterlimit="10" stroke-width="2"/>
    <path id="Path_8506" data-name="Path 8506" d="M564.25,5439.649v4.092c0,2.57,8.334,4.639,18.616,4.639s18.616-2.1,18.616-4.669v-6.544" transform="translate(1.929 8.668)" fill="none" stroke="#95b7a4" stroke-miterlimit="10" stroke-width="2"/>
    <path id="Path_8507" data-name="Path 8507" d="M597.6,5430.944c1.018.579,1.585,1.216,1.585,1.886,0,2.571-8.336,4.652-18.616,4.652s-18.616-2.081-18.616-4.652" transform="translate(1.376 7.168)" fill="none" stroke="#95b7a4" stroke-miterlimit="10" stroke-width="2"/>
    <path id="Path_8508" data-name="Path 8508" d="M562.25,5433.167v5.333c0,2.57,8.334,4.64,18.616,4.64s18.616-2.1,18.616-4.669v-5.3" transform="translate(1.446 7.703)" fill="none" stroke="#95b7a4" stroke-linecap="round" stroke-miterlimit="10" stroke-width="2"/>
    <path id="Path_8509" data-name="Path 8509" d="M593.482,5425.869c0,2.571-8.334,4.651-18.616,4.651s-18.616-2.081-18.616-4.651,8.334-4.656,18.616-4.656S593.482,5423.3,593.482,5425.869Z" transform="translate(0 4.821)" fill="none" stroke="#95b7a4" stroke-miterlimit="10" stroke-width="2"/>
    <path id="Path_8510" data-name="Path 8510" d="M556.25,5425.167v5.953c0,2.571,8.334,4.64,18.616,4.64s18.616-2.1,18.616-4.669v-5.924" transform="translate(0 5.775)" fill="none" stroke="#95b7a4" stroke-miterlimit="10" stroke-width="2"/>
    <path id="Path_8511" data-name="Path 8511" d="M580.985,5447.579c-10.511.063-20.735-2.005-20.735-4.576,0-.953.964-2.094,5.183-2.772" transform="translate(0.964 9.406)" fill="none" stroke="#95b7a4" stroke-miterlimit="10" stroke-width="2"/>
    <path id="Path_8512" data-name="Path 8512" d="M560.25,5443.167v5.333c0,2.571,8.334,4.64,18.616,4.64s18.616-2.1,18.616-4.669v-2.821" transform="translate(0.964 10.114)" fill="none" stroke="#95b7a4" stroke-linecap="round" stroke-miterlimit="10" stroke-width="2"/>
    <path id="Path_8513" data-name="Path 8513" d="M619.482,5412.464c0,2.571-8.334,4.651-18.616,4.651s-18.616-2.081-18.616-4.651" transform="translate(6.268 2.713)" fill="none" stroke="#95b7a4" stroke-linecap="round" stroke-miterlimit="10" stroke-width="2"/>
    <path id="Path_8514" data-name="Path 8514" d="M619.482,5419.964c0,2.571-8.334,4.652-18.616,4.652s-18.616-2.081-18.616-4.652" transform="translate(6.268 4.521)" fill="none" stroke="#95b7a4" stroke-linecap="round" stroke-miterlimit="10" stroke-width="2"/>
    <path id="Path_8515" data-name="Path 8515" d="M618.334,5427.464c0,2.57-8.334,4.651-18.616,4.651a124.223,124.223,0,0,1-12.706-.831" transform="translate(7.416 6.328)" fill="none" stroke="#95b7a4" stroke-linecap="round" stroke-miterlimit="10" stroke-width="2"/>
    <path id="Path_8516" data-name="Path 8516" d="M616.469,5434.964c0,2.571-8.334,4.651-18.616,4.651-1.057,0-2.094-.022-3.1-.063" transform="translate(9.281 8.137)" fill="none" stroke="#95b7a4" stroke-linecap="round" stroke-miterlimit="10" stroke-width="2"/>
    <line id="Line_125" data-name="Line 125" y1="22.339" transform="translate(588.518 5406.12)" fill="none" stroke="#95b7a4" stroke-miterlimit="10" stroke-width="2"/>
    <path id="Path_8517" data-name="Path 8517" d="M617.071,5405.167v45.668c0,2.57-8.535,4.639-18.817,4.639-1.043,0-4.53-.431-6-1.722" transform="translate(8.679 0.953)" fill="none" stroke="#95b7a4" stroke-linecap="round" stroke-miterlimit="10" stroke-width="2"/>
  </g>
</svg>
