<svg xmlns="http://www.w3.org/2000/svg" width="63.125" height="63.123" viewBox="0 0 63.125 63.123">
  <g id="Group_586" data-name="Group 586" transform="translate(-1821.505 -7774.594)">
    <path id="Path_8285" data-name="Path 8285" d="M1881,7799.743h-57.633a1.372,1.372,0,0,1,0-2.744H1881a1.372,1.372,0,0,1,0,2.744Z" transform="translate(0.184 8.338)" fill="#bcad96"/>
    <path id="Path_8286" data-name="Path 8286" d="M1874.027,7785.742h-46.655a1.372,1.372,0,0,1,0-2.744h46.655a1.372,1.372,0,0,1,0,2.744Z" transform="translate(1.673 3.128)" fill="#bcad96"/>
    <path id="Path_8287" data-name="Path 8287" d="M1873.655,7813.743h-45.283a1.372,1.372,0,1,1,0-2.744h45.283a1.372,1.372,0,0,1,0,2.744Z" transform="translate(2.045 13.549)" fill="#bcad96"/>
    <g id="Group_585" data-name="Group 585" transform="translate(1836.928 7775.907)">
      <path id="Path_8288" data-name="Path 8288" d="M1844.88,7836.051a1.372,1.372,0,0,1-.859-2.443,37.1,37.1,0,0,0,14.22-30.278,31.66,31.66,0,0,0-14.124-25.265,1.372,1.372,0,0,1,1.523-2.283,34.374,34.374,0,0,1,15.342,27.43,39.839,39.839,0,0,1-15.246,32.538A1.365,1.365,0,0,1,1844.88,7836.051Z" transform="translate(-1828.74 -7775.55)" fill="#bcad96"/>
      <path id="Path_8289" data-name="Path 8289" d="M1848.882,7836.051a1.361,1.361,0,0,1-.856-.3,39.841,39.841,0,0,1-15.247-32.538,34.374,34.374,0,0,1,15.343-27.43,1.372,1.372,0,0,1,1.523,2.283,31.661,31.661,0,0,0-14.124,25.265,37.094,37.094,0,0,0,14.22,30.278,1.372,1.372,0,0,1-.859,2.443Z" transform="translate(-1832.745 -7775.55)" fill="#bcad96"/>
    </g>
    <path id="Path_8290" data-name="Path 8290" d="M1853.067,7837.718a31.562,31.562,0,1,1,31.563-31.561A31.6,31.6,0,0,1,1853.067,7837.718Zm0-60.379a28.817,28.817,0,1,0,28.819,28.818A28.85,28.85,0,0,0,1853.067,7777.339Z" transform="translate(0 0)" fill="#bcad96"/>
  </g>
</svg>
