<svg xmlns="http://www.w3.org/2000/svg" width="68.716" height="75.291" viewBox="0 0 68.716 75.291">
  <g id="Group_701" data-name="Group 701" transform="translate(-2995.25 -4463.042)">
    <path id="Path_8458" data-name="Path 8458" d="M3042.174,4482.485v-6.415c0-19.245-24.377-9.623-24.377-9.623-5.318,0-8.981,4.306-8.981,9.623v6.415s-2.566,1.433-2.566,3.208v6.415c0,1.774,1.057,3.208,2.829,3.208,0,8.865,8.011,19.245,16.876,19.245s15.808-10.379,15.808-19.245a3.018,3.018,0,0,0,2.977-3.208v-6.415C3044.74,4483.918,3044.429,4482.485,3042.174,4482.485Z" transform="translate(2.83 0)" fill="none" stroke="#345079" stroke-linecap="round" stroke-linejoin="round" stroke-width="2"/>
    <g id="Group_700" data-name="Group 700" transform="translate(2996.25 4512.604)">
      <path id="Path_8459" data-name="Path 8459" d="M2996.25,4526.514v-3.528c0-8.863,6.182-13.151,15.046-13.151h4.811l5.242-7.562" transform="translate(-2996.25 -4501.784)" fill="none" stroke="#345079" stroke-linecap="round" stroke-linejoin="round" stroke-width="2"/>
      <path id="Path_8460" data-name="Path 8460" d="M3053.977,4526.621v-3.527c0-8.863-7.259-13.151-16.122-13.151h-4.811l-5.032-8.051" transform="translate(-2987.261 -4501.892)" fill="none" stroke="#345079" stroke-linecap="round" stroke-linejoin="round" stroke-width="2"/>
    </g>
    <path id="Path_8461" data-name="Path 8461" d="M3024.556,4514.9l-6.415,6.415-6.415-13.151Z" transform="translate(4.38 12.487)" fill="none" stroke="#345079" stroke-linecap="round" stroke-linejoin="round" stroke-width="2"/>
    <path id="Path_8462" data-name="Path 8462" d="M3021.726,4514.9l6.415,6.415,6.681-13.151Z" transform="translate(7.21 12.487)" fill="none" stroke="#345079" stroke-linecap="round" stroke-linejoin="round" stroke-width="2"/>
  </g>
</svg>
