<svg xmlns="http://www.w3.org/2000/svg" width="75.081" height="75.081" viewBox="0 0 75.081 75.081">
  <g id="Group_699" data-name="Group 699" transform="translate(-2054.977 -4555.167)">
    <path id="Path_8456" data-name="Path 8456" d="M2078.067,4611.507c-6.117-2.7-6.38-15.522-.586-28.636s15.45-21.543,21.567-18.841l4.746,2.1a5.192,5.192,0,0,1,2.65,6.845l-1.4,3.167a5.192,5.192,0,0,1-6.843,2.652l-4.751-2.1c-2.621-1.162-6.941,2.86-9.642,8.976s-2.769,12.022-.149,13.177l4.747,2.095a5.2,5.2,0,0,1,2.65,6.848l-1.4,3.171a5.2,5.2,0,0,1-6.847,2.646Z" transform="translate(4.695 1.994)" fill="none" stroke="#9e3e49" stroke-linecap="round" stroke-linejoin="round" stroke-width="2"/>
    <path id="Path_8457" data-name="Path 8457" d="M2085.256,4614.758c-2.867,5.156-8.626,14.49,7.261,14.49a36.531,36.531,0,1,0-24.09-9.061" transform="translate(0 0)" fill="none" stroke="#9e3e49" stroke-linecap="round" stroke-linejoin="round" stroke-width="2"/>
  </g>
</svg>
