<svg xmlns="http://www.w3.org/2000/svg" xmlns:xlink="http://www.w3.org/1999/xlink" width="188" height="188" viewBox="0 0 188 188">
  <defs>
    <clipPath id="clip-path">
      <circle id="Ellipse_157" data-name="Ellipse 157" cx="94" cy="94" r="94" transform="translate(2597.25 4891.167)" fill="none"/>
    </clipPath>
  </defs>
  <g id="Group_781" data-name="Group 781" transform="translate(-224 -3882)">
    <g id="Group_721" data-name="Group 721" transform="translate(224.646 3883.514)">
      <path id="Path_8475" data-name="Path 8475" d="M93,0A93,93,0,1,1,0,93,93,93,0,0,1,93,0Z" transform="translate(-0.466 0.486)" fill="#f7f7f8"/>
    </g>
    <g id="Group_724" data-name="Group 724" transform="translate(-2373.25 -1009.167)">
      <g id="Group_723" data-name="Group 723" clip-path="url(#clip-path)">
        <g id="Group_724-2" data-name="Group 724">
          <g id="Group_723-2" data-name="Group 723">
            <path id="Path_8486" data-name="Path 8486" d="M2679.368,4989.928h26.8l4.391,41.371-32.977-1.124Z" fill="#f4f0f0"/>
            <path id="Path_8487" data-name="Path 8487" d="M2749.121,5049.324a127.327,127.327,0,0,0-3.535-20.523,9.806,9.806,0,0,0-3.462-5.109c-14.076-10.9-35.095-17.369-35.095-17.369l-12.913,24.031h-2.64l-12.909-24.017s-21.019,6.467-35.094,17.369a9.807,9.807,0,0,0-3.462,5.109,127.294,127.294,0,0,0-3.535,20.523,184.863,184.863,0,0,0-.908,29.676L2692.8,5079h57.233A184.926,184.926,0,0,0,2749.121,5049.324Z" fill="#162f52"/>
            <path id="Path_8488" data-name="Path 8488" d="M2711.216,5007.754c-2.6-.943-4.187-1.43-4.187-1.43l-14.227,23.551h0l-14.232-23.541s-1.59.487-4.187,1.43c-1.966.7-4.507,1.662-7.368,2.869l1.719,21.4,3.009,5.068.792,6.493c6.728,26.034,20.265,35.4,20.265,35.4h0c.09-.063,13.557-9.467,20.263-35.414l.793-6.494,3.009-5.068,1.719-21.4C2715.723,5009.416,2713.182,5008.458,2711.216,5007.754Z" fill="#95b7a4"/>
            <path id="Path_8489" data-name="Path 8489" d="M2669.1,5038.346l-2.341,4.97c6.728,26.034,26.041,35.68,26.041,35.68-16.784-24.9-18.29-65.357-18.418-71.23-.016-.471-.016-.719-.016-.719l-7.35,3.587-2.885,24.2Z" fill="#486b9e"/>
            <path id="Path_8490" data-name="Path 8490" d="M2716.5,5038.335l2.341,4.97c-6.728,26.034-26.042,35.7-26.042,35.7,16.781-24.907,18.291-65.377,18.419-71.25.016-.471.016-.719.016-.719l7.352,3.588,2.885,24.2Z" fill="#486b9e"/>
            <path id="Path_8493" data-name="Path 8493" d="M2724.755,4944.538c-1.655-9.927-11.671-6.874-11.671-6.874l-.013.025-.02-.018.033-.007s2.043-2.049-.741-7.633-16.818-9.3-30.272-5.584-19.4,12.182-21.717,26.448c-1.941,11.937-6.881,65.689-5.485,67.389h5.485l21.717-13.923-10.742-50.218c7.9-5.747,25.131-2.762,36.942-11.957,1.858,7.336-1.549,10.494,8.652,27.473l-13.556,35.941,27.558,12.68-9.472-46.526.014.006C2724.354,4963.592,2726.41,4954.465,2724.755,4944.538Z" fill="#162f52"/>
            <path id="Path_8492" data-name="Path 8492" d="M2711.818,4956.642c2.907,5.861,4.3,12.095,3.29,16.917-2.7,18.265-8.589,29.625-22.1,29.625-13.364,0-17.532-8.791-21.508-24.033a55,55,0,0,1-1.471-12.516c0-16.125,2.267-16.242,18.208-17.126.442-.037,1.811-.486,2.252-.486h0c.663,0,1.85-.907,2.513-.87l5.127-1.009,7.049-2.71c.331,0,1.881-2.1,2.212-2.031C2708.367,4949.406,2707.8,4949.873,2711.818,4956.642Z" fill="#fff"/>
          </g>
        </g>
      </g>
    </g>
    <ellipse id="Ellipse_158" data-name="Ellipse 158" cx="4.5" cy="3" rx="4.5" ry="3" transform="translate(307 3981)" fill="#486b9e"/>
    <line id="Line_60" data-name="Line 60" x1="9" y1="2" transform="translate(299.5 3981.5)" fill="none" stroke="#486b9e" stroke-linecap="round" stroke-width="2"/>
    <line id="Line_61" data-name="Line 61" x2="6" y2="14" transform="translate(293.5 3967.5)" fill="none" stroke="#486b9e" stroke-linecap="round" stroke-width="2"/>
    <rect id="Rectangle_1409" data-name="Rectangle 1409" width="6" height="20" rx="2" transform="translate(290 3950)" fill="#486b9e"/>
    <rect id="Rectangle_1410" data-name="Rectangle 1410" width="6" height="20" rx="2" transform="translate(342 3951)" fill="#486b9e"/>
  </g>
</svg>
