<svg xmlns="http://www.w3.org/2000/svg" xmlns:xlink="http://www.w3.org/1999/xlink" width="186" height="198.241" viewBox="0 0 186 198.241">
  <defs>
    <filter id="Path_8463" x="1.235" y="0" width="171.358" height="198.241" filterUnits="userSpaceOnUse">
      <feOffset dy="6" input="SourceAlpha"/>
      <feGaussianBlur stdDeviation="15" result="blur"/>
      <feFlood flood-opacity="0.2"/>
      <feComposite operator="in" in2="blur"/>
      <feComposite in="SourceGraphic"/>
    </filter>
  </defs>
  <g id="Group_783" data-name="Group 783" transform="translate(-1024.181 -3876.213)">
    <g id="Group_720" data-name="Group 720" transform="translate(1024.646 3883.514)">
      <path id="Path_8475" data-name="Path 8475" d="M93,0A93,93,0,1,1,0,93,93,93,0,0,1,93,0Z" transform="translate(-0.466 0.486)" fill="#f7f7f8"/>
      <g id="Group_719" data-name="Group 719" transform="translate(127.128 31.699) rotate(90)">
        <g transform="matrix(0, -1, 1, 0, -39, 127.59)" filter="url(#Path_8463)">
          <path id="Path_8463-2" data-name="Path 8463" d="M108.241,81.358H0V21.245L21.345,0h86.9Z" transform="translate(127.59 39) rotate(90)" fill="#95b7a4"/>
        </g>
        <path id="Path_8190" data-name="Path 8190" d="M21.32,0H0V21.319" transform="translate(21.32 21.319) rotate(180)" fill="#caded3"/>
      </g>
    </g>
    <path id="Subtraction_2" data-name="Subtraction 2" d="M53.628,107.259A53.385,53.385,0,0,1,23.645,98.1,53.8,53.8,0,0,1,4.214,74.505a53.556,53.556,0,0,1,4.945-50.86A53.785,53.785,0,0,1,32.754,4.215a53.6,53.6,0,0,1,55.52,8.472V94.572a53.461,53.461,0,0,1-34.646,12.688Z" transform="translate(1075.5 3933.929)" fill="#95b7a4"/>
    <g id="Ellipse_155" data-name="Ellipse 155" transform="translate(1075.5 3933.932)" fill="rgba(255,255,255,0.33)" stroke="#496c9f" stroke-width="10">
      <circle cx="53.628" cy="53.628" r="53.628" stroke="none"/>
      <circle cx="53.628" cy="53.628" r="48.628" fill="none"/>
    </g>
    <path id="Path_8485" data-name="Path 8485" d="M80.814,196.382a4.582,4.582,0,0,1-3.239-1.341l-8.754-8.754a4.583,4.583,0,0,1,6.481-6.481l5.1,5.1,19.216-24.459a4.583,4.583,0,0,1,7.207,5.663L84.419,194.63a4.586,4.586,0,0,1-3.331,1.745Q80.951,196.382,80.814,196.382Zm0,0" transform="translate(1041.485 3810.021)" fill="#fff"/>
    <rect id="Rectangle_1407" data-name="Rectangle 1407" width="46" height="23.24" rx="10" transform="translate(1177.653 4021.04) rotate(45)" fill="#496c9f"/>
    <rect id="Rectangle_1408" data-name="Rectangle 1408" width="32" height="11.24" rx="5.62" transform="translate(1166.181 4018.232) rotate(45)" fill="#496c9f"/>
  </g>
</svg>
