<svg xmlns="http://www.w3.org/2000/svg" width="57.487" height="76" viewBox="0 0 57.487 76">
  <g id="Group_717" data-name="Group 717" transform="translate(-2303.25 -5395.167)">
    <path id="Path_8482" data-name="Path 8482" d="M2350.181,5443.374v26.794H2304.25V5410.72l11.772-14.552h34.159V5415.3" transform="translate(0 -0.001)" fill="none" stroke="#345079" stroke-linejoin="round" stroke-width="2"/>
    <path id="Path_8483" data-name="Path 8483" d="M2305.25,5411.2h11.483v-14.034" transform="translate(0.276 0.275)" fill="none" stroke="#345079" stroke-linecap="round" stroke-linejoin="round" stroke-width="2"/>
    <line id="Line_54" data-name="Line 54" x2="12.695" transform="translate(2310.597 5421.556)" fill="none" stroke="#345079" stroke-linecap="round" stroke-linejoin="round" stroke-width="2"/>
    <line id="Line_55" data-name="Line 55" x2="12.695" transform="translate(2318.531 5421.556)" fill="none" stroke="#345079" stroke-linejoin="round" stroke-width="2"/>
    <line id="Line_56" data-name="Line 56" x2="12.695" transform="translate(2310.597 5431.871)" fill="none" stroke="#345079" stroke-linecap="round" stroke-linejoin="round" stroke-width="2"/>
    <line id="Line_57" data-name="Line 57" x2="10.314" transform="translate(2318.531 5431.871)" fill="none" stroke="#345079" stroke-linejoin="round" stroke-width="2"/>
    <line id="Line_58" data-name="Line 58" x2="25.389" transform="translate(2310.597 5442.185)" fill="none" stroke="#345079" stroke-linecap="round" stroke-linejoin="round" stroke-width="2"/>
    <g id="Group_716" data-name="Group 716" transform="translate(2329.227 5414.244)">
      <line id="Line_59" data-name="Line 59" x1="9.479" y1="24.265" transform="translate(20.735 29.351)" fill="none" stroke="#345079" stroke-linecap="round" stroke-linejoin="round" stroke-width="2"/>
      <path id="Path_8484" data-name="Path 8484" d="M2353.184,5420a15.2,15.2,0,1,1-19.686-8.616A15.2,15.2,0,0,1,2353.184,5420Z" transform="translate(-2323.827 -5410.336)" fill="none" stroke="#345079" stroke-linecap="round" stroke-linejoin="round" stroke-width="2"/>
    </g>
    <rect id="Rectangle_1404" data-name="Rectangle 1404" width="12.695" height="10.314" transform="translate(2337.573 5423.937)" fill="none" stroke="#345079" stroke-linecap="round" stroke-linejoin="round" stroke-width="2"/>
  </g>
</svg>
