<svg id="Group_442" data-name="Group 442" xmlns="http://www.w3.org/2000/svg" width="55.545" height="55.978" viewBox="0 0 55.545 55.978">
  <path id="Path_8145" data-name="Path 8145" d="M4817.494,5441.63a.927.927,0,0,1-.872-1.24l2.387-6.6h-5.583a.925.925,0,0,1-.925-.926V5408.8a.923.923,0,0,1,.925-.925h37.03a.926.926,0,0,1,.926.925v24.069a.927.927,0,0,1-.926.926h-20.811L4818,5441.476A.912.912,0,0,1,4817.494,5441.63Zm-3.143-9.69h5.974a.925.925,0,0,1,.872,1.24l-1.885,5.213,9.543-6.3a.907.907,0,0,1,.511-.153h20.164v-22.219h-35.179Z" transform="translate(-4812.5 -5407.87)" fill="#9e3e49"/>
  <path id="Path_8146" data-name="Path 8146" d="M4864.634,5465.481a.908.908,0,0,1-.51-.153l-11.641-7.686h-19.057a.925.925,0,0,1-.926-.926v-21.293a.926.926,0,0,1,1.852,0v20.367h18.411a.919.919,0,0,1,.51.154l9.543,6.3-1.885-5.214a.929.929,0,0,1,.871-1.24h5.876v-24.069h-14.812a.926.926,0,0,1,0-1.852H4868.6a.926.926,0,0,1,.926.926v25.921a.927.927,0,0,1-.926.926h-5.482l2.383,6.6a.926.926,0,0,1-.872,1.238Z" transform="translate(-4813.985 -5409.503)" fill="#9e3e49"/>
  <path id="Path_8147" data-name="Path 8147" d="M4846.348,5417.722h-25.922a.926.926,0,0,1,0-1.852h25.922a.926.926,0,0,1,0,1.852Z" transform="translate(-4813.02 -5408.464)" fill="#9e3e49"/>
  <path id="Path_8148" data-name="Path 8148" d="M4846.348,5421.722h-25.922a.926.926,0,0,1,0-1.852h25.922a.926.926,0,0,1,0,1.852Z" transform="translate(-4813.02 -5408.761)" fill="#9e3e49"/>
  <path id="Path_8149" data-name="Path 8149" d="M4833.387,5425.722h-12.961a.926.926,0,0,1,0-1.852h12.961a.926.926,0,0,1,0,1.852Z" transform="translate(-4813.02 -5409.058)" fill="#9e3e49"/>
  <path id="Path_8150" data-name="Path 8150" d="M4862.644,5443.722h-22.218a.926.926,0,1,1,0-1.852h22.218a.926.926,0,1,1,0,1.852Z" transform="translate(-4814.504 -5410.395)" fill="#9e3e49"/>
  <path id="Path_8151" data-name="Path 8151" d="M4862.644,5447.722h-22.218a.926.926,0,0,1,0-1.852h22.218a.926.926,0,0,1,0,1.852Z" transform="translate(-4814.504 -5410.691)" fill="#9e3e49"/>
  <path id="Path_8152" data-name="Path 8152" d="M4853.386,5451.722h-12.96a.926.926,0,0,1,0-1.852h12.96a.926.926,0,0,1,0,1.852Z" transform="translate(-4814.504 -5410.988)" fill="#9e3e49"/>
</svg>
