<svg id="Group_447" data-name="Group 447" xmlns="http://www.w3.org/2000/svg" width="148.564" height="21.822" viewBox="0 0 148.564 21.822">
  <path id="Path_1" data-name="Path 1" d="M87.4,21.822V11.881H90.79L91.275,8H87.4V5.577c0-1.091.364-1.94,1.94-1.94H91.4V.121C90.911.121,89.7,0,88.365,0c-2.91,0-4.971,1.819-4.971,5.092V8H80v3.88h3.395v9.941Z" transform="translate(57.168)" fill="#444" fill-rule="evenodd"/>
  <path id="Path_2" data-name="Path 2" d="M44.91,19.7A12.616,12.616,0,0,0,57.64,6.971V6.364a9.855,9.855,0,0,0,2.182-2.3,10.064,10.064,0,0,1-2.546.727,4.717,4.717,0,0,0,1.94-2.425,11.12,11.12,0,0,1-2.788,1.091A4.33,4.33,0,0,0,53.154,2a4.555,4.555,0,0,0-4.486,4.486,2.364,2.364,0,0,0,.121.97,12.534,12.534,0,0,1-9.214-4.728,4.643,4.643,0,0,0-.606,2.3,4.817,4.817,0,0,0,1.94,3.758,4.087,4.087,0,0,1-2.061-.606h0a4.431,4.431,0,0,0,3.637,4.364,3.738,3.738,0,0,1-1.212.121,2.063,2.063,0,0,1-.849-.121A4.593,4.593,0,0,0,44.668,15.7a9.153,9.153,0,0,1-5.577,1.94A3.357,3.357,0,0,1,38,17.518,11.443,11.443,0,0,0,44.91,19.7" transform="translate(30.584 -0.441)" fill="#444" fill-rule="evenodd"/>
  <path id="Path_3" data-name="Path 3" d="M10.911,1.94a33.456,33.456,0,0,1,4.364.121,5.623,5.623,0,0,1,2.061.364A4.258,4.258,0,0,1,19.4,4.486a5.623,5.623,0,0,1,.364,2.061c0,1.091.121,1.455.121,4.364a33.456,33.456,0,0,1-.121,4.364,5.623,5.623,0,0,1-.364,2.061A4.258,4.258,0,0,1,17.337,19.4a5.623,5.623,0,0,1-2.061.364c-1.091,0-1.455.121-4.364.121a33.456,33.456,0,0,1-4.364-.121A5.623,5.623,0,0,1,4.486,19.4a4.258,4.258,0,0,1-2.061-2.061,5.623,5.623,0,0,1-.364-2.061c0-1.091-.121-1.455-.121-4.364a33.456,33.456,0,0,1,.121-4.364,5.623,5.623,0,0,1,.364-2.061,4.354,4.354,0,0,1,.849-1.212,2.05,2.05,0,0,1,1.212-.849,5.623,5.623,0,0,1,2.061-.364,33.456,33.456,0,0,1,4.364-.121m0-1.94A35.821,35.821,0,0,0,6.425.121,7.485,7.485,0,0,0,3.758.606a4.746,4.746,0,0,0-1.94,1.212A4.746,4.746,0,0,0,.606,3.758,5.524,5.524,0,0,0,.121,6.425,35.821,35.821,0,0,0,0,10.911,35.821,35.821,0,0,0,.121,15.4a7.485,7.485,0,0,0,.485,2.667A4.746,4.746,0,0,0,1.819,20a4.746,4.746,0,0,0,1.94,1.212,7.485,7.485,0,0,0,2.667.485,35.821,35.821,0,0,0,4.486.121A35.821,35.821,0,0,0,15.4,21.7a7.485,7.485,0,0,0,2.667-.485,5.086,5.086,0,0,0,3.152-3.152A7.485,7.485,0,0,0,21.7,15.4c0-1.212.121-1.576.121-4.486A35.821,35.821,0,0,0,21.7,6.425a7.485,7.485,0,0,0-.485-2.667A4.746,4.746,0,0,0,20,1.819,4.746,4.746,0,0,0,18.064.606,7.485,7.485,0,0,0,15.4.121,35.821,35.821,0,0,0,10.911,0m0,5.334a5.487,5.487,0,0,0-5.577,5.577,5.577,5.577,0,1,0,5.577-5.577m0,9.214a3.572,3.572,0,0,1-3.637-3.637,3.572,3.572,0,0,1,3.637-3.637,3.572,3.572,0,0,1,3.637,3.637,3.572,3.572,0,0,1-3.637,3.637M16.73,3.758a1.334,1.334,0,1,0,1.334,1.334A1.345,1.345,0,0,0,16.73,3.758" fill="#444" fill-rule="evenodd"/>
</svg>
