<svg xmlns="http://www.w3.org/2000/svg" width="27.12" height="22.44" viewBox="0 0 27.12 22.44">
  <path id="Path_8265" data-name="Path 8265" d="M12.6-40.68C6.24-37.68,3.24-33,3.24-27c0,5.52,2.16,8.76,6.36,8.76,3,0,5.16-2.16,5.16-5.52A4.854,4.854,0,0,0,9.6-28.68a2.041,2.041,0,0,0-.6.06c0-3.6,1.92-5.94,5.76-7.62Zm15.6,0c-6.36,3-9.36,7.68-9.36,13.68,0,5.52,2.16,8.76,6.36,8.76,3,0,5.16-2.16,5.16-5.52a4.854,4.854,0,0,0-5.16-4.92,2.041,2.041,0,0,0-.6.06c0-3.6,1.92-5.94,5.76-7.62Z" transform="translate(-3.24 40.68)" fill="#bcad96" opacity="0.601"/>
</svg>
