<svg xmlns="http://www.w3.org/2000/svg" width="80.55" height="79.397" viewBox="0 0 80.55 79.397">
  <g id="Group_578" data-name="Group 578" transform="translate(-624.005 -10872.474)">
    <line id="Line_16" data-name="Line 16" x2="28.528" transform="translate(649.177 10883.747)" fill="none" stroke="#bcad96" stroke-linecap="round" stroke-linejoin="round" stroke-width="2"/>
    <line id="Line_17" data-name="Line 17" x1="14.847" y2="27.861" transform="translate(683.025 10908.038)" fill="none" stroke="#bcad96" stroke-linecap="round" stroke-linejoin="round" stroke-width="2"/>
    <line id="Line_18" data-name="Line 18" x2="14.108" y2="26.58" transform="translate(629.066 10908.038)" fill="none" stroke="#bcad96" stroke-linecap="round" stroke-linejoin="round" stroke-width="2"/>
    <path id="Path_8267" data-name="Path 8267" d="M666.211,10894.907v6.714s3.356,1.5,3.356,3.356v3.358c0,2.782-2.319,6.816-5.1,6.816,0,6.216-4.6,12.522-10.812,12.522h-.5c-6.214,0-11.678-6.307-11.678-12.522-2.782,0-5.467-4.034-5.467-6.816v-3.358a3.475,3.475,0,0,1,3.356-3.356v-5.705c0-4.451,2.259-8.226,6.713-8.226C654.464,10884.838,666.211,10878.125,666.211,10894.907Z" transform="translate(8.137 6.417)" fill="none" stroke="#bcad96" stroke-linecap="round" stroke-linejoin="round" stroke-width="2"/>
    <path id="Path_8268" data-name="Path 8268" d="M669.8,10909.738a16.784,16.784,0,0,1,16.941,17.221H629.521a16.6,16.6,0,0,1,16.939-17" transform="translate(3.74 23.912)" fill="none" stroke="#bcad96" stroke-linecap="round" stroke-linejoin="round" stroke-width="2"/>
    <g id="Path_8269" data-name="Path 8269" transform="translate(3.74 0.001)" fill="none" stroke-miterlimit="10">
      <path d="M642.946,10881.186c0,3.707-3.006,13.426-6.712,13.426s-6.713-9.719-6.713-13.426a6.712,6.712,0,1,1,13.425,0Z" stroke="none"/>
      <path d="M 636.2334594726562 10874.47265625 C 632.5264892578125 10874.47265625 629.5209350585938 10877.4794921875 629.5209350585938 10881.185546875 C 629.5209350585938 10884.892578125 632.5264892578125 10894.611328125 636.2334594726562 10894.611328125 C 639.9403686523438 10894.611328125 642.9459228515625 10884.892578125 642.9459228515625 10881.185546875 C 642.9459228515625 10877.4794921875 639.9403686523438 10874.47265625 636.2334594726562 10874.47265625 M 636.2334594726562 10872.47265625 C 641.0375366210938 10872.47265625 644.9459228515625 10876.380859375 644.9459228515625 10881.185546875 C 644.9459228515625 10883.4365234375 644.0733032226562 10887.0869140625 642.8237915039062 10890.0625 C 642.0859375 10891.8203125 641.2657470703125 10893.2490234375 640.3861083984375 10894.310546875 C 639.1211547851562 10895.8369140625 637.7239990234375 10896.611328125 636.2334594726562 10896.611328125 C 634.7428588867188 10896.611328125 633.345703125 10895.8369140625 632.080810546875 10894.310546875 C 631.2011108398438 10893.2490234375 630.3809204101562 10891.8203125 629.64306640625 10890.0625 C 628.3935546875 10887.0869140625 627.5209350585938 10883.4365234375 627.5209350585938 10881.185546875 C 627.5209350585938 10876.380859375 631.4293823242188 10872.47265625 636.2334594726562 10872.47265625 Z" stroke="none" fill="#bcad96"/>
    </g>
    <path id="Path_8270" data-name="Path 8270" d="M624.963,10896.391c0-4.634,3.011-8.391,7.649-8.391h4.168" transform="translate(0.649 9.172)" fill="none" stroke="#bcad96" stroke-linecap="round" stroke-linejoin="round" stroke-width="2"/>
    <line id="Line_19" data-name="Line 19" x2="16.781" transform="translate(624.005 10907.24)" fill="none" stroke="#bcad96" stroke-linejoin="round" stroke-width="2"/>
    <g id="Path_8271" data-name="Path 8271" transform="translate(22.728 0.001)" fill="none" stroke-miterlimit="10">
      <path d="M657.522,10881.186c0,3.707,3.007,13.426,6.714,13.426s6.712-9.719,6.712-13.426a6.713,6.713,0,0,0-13.427,0Z" stroke="none"/>
      <path d="M 664.2361450195312 10874.47265625 C 660.5291748046875 10874.47265625 657.52197265625 10877.4794921875 657.52197265625 10881.185546875 C 657.52197265625 10884.892578125 660.5291748046875 10894.611328125 664.2361450195312 10894.611328125 C 667.943115234375 10894.611328125 670.9485473632812 10884.892578125 670.9485473632812 10881.185546875 C 670.9485473632812 10877.4794921875 667.943115234375 10874.47265625 664.2361450195312 10874.47265625 M 664.2361450195312 10872.47265625 C 669.0401611328125 10872.47265625 672.9485473632812 10876.380859375 672.9485473632812 10881.185546875 C 672.9485473632812 10883.4365234375 672.075927734375 10887.0869140625 670.8265380859375 10890.0625 C 670.088623046875 10891.8203125 669.2684936523438 10893.2490234375 668.3887939453125 10894.310546875 C 667.1239013671875 10895.8369140625 665.7267456054688 10896.611328125 664.2361450195312 10896.611328125 C 662.7456665039062 10896.611328125 661.3484497070312 10895.837890625 660.0833740234375 10894.3115234375 C 659.2034912109375 10893.25 658.3831176757812 10891.8203125 657.64501953125 10890.0634765625 C 656.39501953125 10887.0869140625 655.52197265625 10883.4365234375 655.52197265625 10881.185546875 C 655.52197265625 10876.380859375 659.43115234375 10872.47265625 664.2361450195312 10872.47265625 Z" stroke="none" fill="#bcad96"/>
    </g>
    <path id="Path_8272" data-name="Path 8272" d="M675.453,10896.391c0-4.634-4.262-8.391-8.9-8.391h-2.547" transform="translate(27.124 9.172)" fill="none" stroke="#bcad96" stroke-linecap="round" stroke-linejoin="round" stroke-width="2"/>
    <line id="Line_20" data-name="Line 20" x1="16.781" transform="translate(687.774 10907.24)" fill="none" stroke="#bcad96" stroke-linejoin="round" stroke-width="2"/>
  </g>
</svg>
