<svg id="Group_436" data-name="Group 436" xmlns="http://www.w3.org/2000/svg" width="44.3" height="43.561" viewBox="0 0 44.3 43.561">
  <path id="Path_2528" data-name="Path 2528" d="M447.084,5941.739H410.168a3.7,3.7,0,0,1-3.692-3.691v-32.487a3.7,3.7,0,0,1,3.692-3.691h36.916a3.7,3.7,0,0,1,3.692,3.691v32.487A3.7,3.7,0,0,1,447.084,5941.739Zm-36.916-38.393a2.217,2.217,0,0,0-2.215,2.215v32.487a2.217,2.217,0,0,0,2.215,2.215h36.916a2.218,2.218,0,0,0,2.215-2.215v-32.487a2.217,2.217,0,0,0-2.215-2.215Z" transform="translate(-406.476 -5898.178)" fill="#bcad96"/>
  <g id="Group_435" data-name="Group 435" transform="translate(6.645)">
    <path id="Path_2529" data-name="Path 2529" d="M423.214,5904.253a.738.738,0,0,1-.738-.738v-5.907a.738.738,0,0,1,1.477,0v5.907A.739.739,0,0,1,423.214,5904.253Z" transform="translate(-417.308 -5896.87)" fill="#bcad96"/>
    <path id="Path_2530" data-name="Path 2530" d="M451.214,5904.253a.738.738,0,0,1-.738-.738v-5.907a.738.738,0,0,1,1.477,0v5.907A.739.739,0,0,1,451.214,5904.253Z" transform="translate(-424.635 -5896.87)" fill="#bcad96"/>
    <path id="Path_2531" data-name="Path 2531" d="M445.747,5913.347H416.214a.739.739,0,0,1,0-1.477h29.533a.739.739,0,0,1,0,1.477Z" transform="translate(-415.476 -5900.795)" fill="#bcad96"/>
    <path id="Path_2532" data-name="Path 2532" d="M422.121,5921.347h-5.907a.738.738,0,1,1,0-1.477h5.907a.738.738,0,1,1,0,1.477Z" transform="translate(-415.476 -5902.889)" fill="#bcad96"/>
    <path id="Path_2533" data-name="Path 2533" d="M438.121,5921.347h-5.907a.738.738,0,1,1,0-1.477h5.907a.738.738,0,1,1,0,1.477Z" transform="translate(-419.663 -5902.889)" fill="#bcad96"/>
    <path id="Path_2534" data-name="Path 2534" d="M454.121,5921.347h-5.907a.738.738,0,1,1,0-1.477h5.907a.738.738,0,1,1,0,1.477Z" transform="translate(-423.85 -5902.889)" fill="#bcad96"/>
    <path id="Path_2535" data-name="Path 2535" d="M422.121,5929.347h-5.907a.739.739,0,0,1,0-1.478h5.907a.739.739,0,0,1,0,1.478Z" transform="translate(-415.476 -5904.981)" fill="#bcad96"/>
    <path id="Path_2536" data-name="Path 2536" d="M438.121,5929.347h-5.907a.739.739,0,0,1,0-1.478h5.907a.739.739,0,0,1,0,1.478Z" transform="translate(-419.663 -5904.981)" fill="#bcad96"/>
    <path id="Path_2537" data-name="Path 2537" d="M454.121,5929.347h-5.907a.739.739,0,0,1,0-1.478h5.907a.739.739,0,0,1,0,1.478Z" transform="translate(-423.85 -5904.981)" fill="#bcad96"/>
    <path id="Path_2538" data-name="Path 2538" d="M422.121,5937.347h-5.907a.738.738,0,1,1,0-1.477h5.907a.738.738,0,1,1,0,1.477Z" transform="translate(-415.476 -5907.076)" fill="#bcad96"/>
    <path id="Path_2539" data-name="Path 2539" d="M438.121,5937.347h-5.907a.738.738,0,1,1,0-1.477h5.907a.738.738,0,1,1,0,1.477Z" transform="translate(-419.663 -5907.076)" fill="#bcad96"/>
    <path id="Path_2540" data-name="Path 2540" d="M454.121,5937.347h-5.907a.738.738,0,1,1,0-1.477h5.907a.738.738,0,1,1,0,1.477Z" transform="translate(-423.85 -5907.076)" fill="#bcad96"/>
    <path id="Path_2541" data-name="Path 2541" d="M422.121,5945.347h-5.907a.739.739,0,0,1,0-1.478h5.907a.739.739,0,0,1,0,1.478Z" transform="translate(-415.476 -5909.168)" fill="#bcad96"/>
    <path id="Path_2542" data-name="Path 2542" d="M438.121,5945.347h-5.907a.739.739,0,0,1,0-1.478h5.907a.739.739,0,0,1,0,1.478Z" transform="translate(-419.663 -5909.168)" fill="#bcad96"/>
    <path id="Path_2543" data-name="Path 2543" d="M454.121,5945.347h-5.907a.739.739,0,0,1,0-1.478h5.907a.739.739,0,0,1,0,1.478Z" transform="translate(-423.85 -5909.168)" fill="#bcad96"/>
  </g>
</svg>
