<svg xmlns="http://www.w3.org/2000/svg" width="72.559" height="72.559" viewBox="0 0 72.559 72.559">
  <g id="Group_493" data-name="Group 493" transform="translate(-6 -6)">
    <path id="Path_8182" data-name="Path 8182" d="M112.466,293.387a1.308,1.308,0,0,1-1.306-1.306V276.453a1.306,1.306,0,0,1,2.229-.924l4.5,4.5a1.306,1.306,0,0,1-1.847,1.847l-2.274-2.274v11.169h14.322a1.306,1.306,0,0,1,0,2.612Z" transform="translate(-89.899 -230.089)" fill="#bcad96"/>
    <path id="Path_8183" data-name="Path 8183" d="M292.08,129.4a1.3,1.3,0,0,1-.924-.383l-4.5-4.5a1.306,1.306,0,0,1,1.847-1.847l2.274,2.274V113.772H276.451a1.306,1.306,0,0,1,0-2.612H292.08a1.308,1.308,0,0,1,1.306,1.306v15.628a1.308,1.308,0,0,1-1.305,1.306Z" transform="translate(-230.087 -89.899)" fill="#bcad96"/>
    <path id="Path_8184" data-name="Path 8184" d="M278.99,310.817a1.307,1.307,0,0,1-1.306-1.306V278.99a1.307,1.307,0,0,1,1.306-1.306h30.521a1.307,1.307,0,0,1,1.306,1.306v30.521a1.307,1.307,0,0,1-1.306,1.306ZM280.3,308.2H308.2V280.3H280.3Z" transform="translate(-232.258 -232.258)" fill="#bcad96"/>
    <path id="Path_8185" data-name="Path 8185" d="M415.272,346.914a1.234,1.234,0,0,1-1.233-1.232V329.776a1.234,1.234,0,0,1,1.233-1.233h.139a1.234,1.234,0,0,1,1.233,1.233v5.785h1.768a1.233,1.233,0,0,1,0,2.466h-1.768v7.654a1.234,1.234,0,0,1-1.233,1.233Z" transform="translate(-348.825 -275.736)" fill="#bcad96"/>
    <path id="Path_8186" data-name="Path 8186" d="M333.736,351.822a1.237,1.237,0,0,1-1.021-.536l-.105-.154a1.232,1.232,0,0,1,.425-1.777,14.592,14.592,0,0,0,1.9-1.234A11.869,11.869,0,0,0,337,346.1a10.82,10.82,0,0,0,1.474-2.466,9.414,9.414,0,0,0,.492-1.478l.132-.539h-5.3a1.233,1.233,0,0,1,0-2.466h6.8a1.235,1.235,0,0,1,1.23,1.328,12.925,12.925,0,0,1-2.283,6.5,14.714,14.714,0,0,1-2.442,2.7,19.147,19.147,0,0,1-2.739,1.97A1.217,1.217,0,0,1,333.736,351.822Z" transform="translate(-279.028 -284.806)" fill="#bcad96"/>
    <path id="Path_8187" data-name="Path 8187" d="M7.306,39.133A1.308,1.308,0,0,1,6,37.827V7.306A1.308,1.308,0,0,1,7.306,6H37.827a1.308,1.308,0,0,1,1.306,1.306V37.827a1.307,1.307,0,0,1-1.306,1.306Zm1.306-2.612H36.521V8.612H8.612Z" fill="#bcad96"/>
    <path id="Path_8188" data-name="Path 8188" d="M83.478,78.4a1.238,1.238,0,0,1-1.155-.8L80.9,73.773H75.349L73.96,77.592A1.236,1.236,0,0,1,72.8,78.4h-.562a1.232,1.232,0,0,1-1.152-1.668l5.543-14.611a1.238,1.238,0,0,1,1.152-.795h.747a1.239,1.239,0,0,1,1.153.8L85.2,76.736A1.232,1.232,0,0,1,84.043,78.4ZM77.713,67.217c-.365,1.032-.764,2.161-1.116,3.147l-.208.582h3.476l-1.744-4.883Z" transform="translate(-55.575 -47.299)" fill="#bcad96"/>
  </g>
</svg>
