<svg xmlns="http://www.w3.org/2000/svg" width="13" height="9.75" viewBox="0 0 13 9.75">
  <path id="Path_8321" data-name="Path 8321" d="M25.746,4.475a.125.125,0,0,1,.165-.025A.165.165,0,0,1,26,4.6v5.18A1.214,1.214,0,0,1,24.781,11H14.219A1.214,1.214,0,0,1,13,9.781V4.6a.139.139,0,0,1,.089-.14.164.164,0,0,1,.165.013q.838.635,3.91,2.869l.254.229a10.1,10.1,0,0,0,.965.66,2.378,2.378,0,0,0,1.117.33,2.254,2.254,0,0,0,1.117-.355,7.09,7.09,0,0,0,.965-.66l.254-.2Q24.832,5.186,25.746,4.475ZM19.5,7.75a1.621,1.621,0,0,1-.812-.3,6.051,6.051,0,0,1-.787-.559l-.254-.178q-3.123-2.285-4.24-3.148l-.178-.127A.579.579,0,0,1,13,2.951V2.469A1.214,1.214,0,0,1,14.219,1.25H24.781A1.214,1.214,0,0,1,26,2.469v.482a.579.579,0,0,1-.229.482l-.127.1q-1.092.863-4.291,3.174l-.254.178a6.051,6.051,0,0,1-.787.559A1.621,1.621,0,0,1,19.5,7.75Z" transform="translate(-13 -1.25)" fill="#345079"/>
</svg>
